<svg id="Main" xmlns="http://www.w3.org/2000/svg" viewBox="0 0 2000 2000"><defs><style>.cls-1{opacity:0.2;}.cls-2{fill:#fbe523;}.cls-3{fill:#eeb412;}.cls-4{fill:#ce9811;}.cls-5{fill:#ccc;}.cls-6{fill:#fff;}.cls-7{fill:#a0a0a0;}.cls-8{fill:#4c2605;}</style></defs><g id="Butter"><path class="cls-1" d="M1556.92,1119.43c.41,3.44-.41,7.48-2.9,12.22-10.14,19.36-32.21,23.61-51.69,27.86-71.14,15.53-140.51,36-210.39,56.4-29.42,8.6-58.17,17.86-84.38,34.1l-.09.06-161.34,115a13.51,13.51,0,0,1-8.42,2.46l-586.86-28.15c-11.51-.55-16.69-14.11-8.32-21.73l95.65-86.93a13.45,13.45,0,0,1,7.11-3.32l710.47-98.37a14.1,14.1,0,0,1,1.84-.12h41.62c18.81,0,41.83,3.11,59.91-1.93,16.32-4.55,31.72-12.24,48.06-17A306.54,306.54,0,0,1,1458,1099.5a249.61,249.61,0,0,1,49.87-.86,211.44,211.44,0,0,1,24.66,3.48C1544.18,1104.53,1555.73,1109.48,1556.92,1119.43Z"/><path class="cls-2" d="M1556.85,689.14a62.73,62.73,0,0,1-15.37,19,135.55,135.55,0,0,1-18.07,12.76c-5.94,3.63-12,7-18,10.47-24,13.73-48.83,25.72-73.26,37.64s-48.54,24-71.11,38A345.75,345.75,0,0,0,1299,856.15c-2.37,2.33-4.77,4.64-6.8,7s-4.24,4.81-6.32,7.31c-4.16,5-8.19,10.35-12.18,15.7-2.94,4-5.85,8.08-8.77,12.18l2.12,1.87c2.41,2.12,4.78,9.32,5.2,15.95q5.32,82.33,6.93,164.89l.34,20.64.12,10.35a107.24,107.24,0,0,1-.4,11.38,49.86,49.86,0,0,1-2.75,12.63,45.19,45.19,0,0,1-6.42,11.63c-5.16,6.78-11,11.7-16.41,16.11l-8.28,6.65c-2.77,2.18-5.64,4.22-8.48,6.34l-4.24,3.13-4.34,3-8.71,5.92c-11.78,7.66-23.77,14.84-35.9,21.64-24.27,13.52-49,25.72-73.2,38.27-12.13,6.28-24.12,12.66-35.86,19.36-2.91,1.7-5.87,3.33-8.77,5.05l-8.65,5.21c-5.71,3.44-11.5,7.29-17.84,10.92a104.17,104.17,0,0,1-20.79,9.34,95.25,95.25,0,0,1-22.69,4.09c-15.15.9-29.64-1.22-43.41-3.71s-27.06-5.57-40.05-7.39-25.66-2.48-37.43-.11c-2.84.55-5.06.72-6.49.34a2.43,2.43,0,0,1-1.34-.78c-2.86,2.46-5.73,4.91-8.53,7.39-2.24,2-8.43,2.79-13.83,2.14-44.78-6.13-90.12-8.92-135.65-11s-91.34-3.5-137.23-7c-5.75-.46-11.48-.86-17.21-1.38l-17.22-1.62a72.66,72.66,0,0,1-9.74-1.45,33.29,33.29,0,0,1-11.5-4.76,24.44,24.44,0,0,1-5.5-5.23,23.2,23.2,0,0,1-3.57-6.68,41,41,0,0,1-1.91-11.27c-1.22-23.28-1.22-46.35-.84-69.32.69-45.86,3-91.48,1.22-136.45-.17-3.59.57-6.08,1.74-6.86l.13-1.68c.19-3.32,4.51-9.82,9.55-14.48l62.77-58,31.36-29,15.7-14.5c5.27-4.85,10.64-9.76,16.31-14.53,11.27-9.51,24-18.62,38.92-24.45a93.1,93.1,0,0,1,23.3-5.63,202.5,202.5,0,0,1,22.48-1l85.49.06,170.87.13,85.36,0c14.15-.15,28.46-.38,42.8-.38s28.72.13,43.64,1.39a29.78,29.78,0,0,1,4.64.8c16.38-12.66,32.86-25.11,49.23-37.68,21.64-16.63,43.69-32.88,65.79-48.92q66.4-48.08,135-93,34.29-22.49,69.13-44.11c5.9-3.59,11.34-7.2,17.91-10.89s13.58-7,22.14-8.57a39.35,39.35,0,0,1,13.82-.23c1.19.25,2.41.46,3.61.82s2.37.76,3.52,1.22,2.27,1,3.38,1.61,2.17,1.35,3.24,2.06a32.54,32.54,0,0,1,9.68,11.38,39.5,39.5,0,0,1,4,13.29A45.83,45.83,0,0,1,1556.85,689.14Z"/><path class="cls-3" d="M933.68,1089.44s33.67-57.18,61.37-77.31,29.13-39.49,29.13-39.49,60-24.6,93.61-77.51l-25-6.82-11,19.26L1039.54,950l-33.12,24.17-16.32,20.5-48,52.08-17.28,40-2.31,15.1Z"/><path class="cls-3" d="M922.75,1088.54c4.9.27,115.79,10.2,115.79,10.2l83.15-78.27,67.61-38.53,57.5-74.37h11.84l11.48,202.82-15.54,42.75L1124,1234.73l-91.12,50.51-50.31,10.88-83.37-14.94-34.75-.1,34.75-102.3,22.75-47.4Z"/><path class="cls-3" d="M1093.24,1050.93c-10.32,1.11-54.93,11-90.41-26.23a4.5,4.5,0,0,1,1.77-7.37l16.83-5.74a4.49,4.49,0,0,1,2.41-.13l57.72,12.72a4.37,4.37,0,0,0,1.53.07l20.89-2.65a4.48,4.48,0,0,1,4.44,6.68l-11.79,20.44A4.44,4.44,0,0,1,1093.24,1050.93Z"/><path class="cls-4" d="M928.85,1106.48c3.79,3.07,23.91,18.5,0,66.33s-37.43,105.39-37.43,105.39l-26.95,7.42,2.52-30.68,19.23-53.54,20.8-45.23,8.83-23.91Z"/><path class="cls-4" d="M1067.29,1144.07s3.25,32,35.21,22,29.37-35.15,46.25-38.35,55.83-10.63,64.11-50.46L1198,1090.54l-15.18,11.31-26,7.86-26,4.94-13.07,10.24-8.76,11.19-8.53,8.79-8.79,4.79h-9.58l-9.59-4Z"/><path class="cls-4" d="M1117.79,1035.61s103.25-5.21,137.09-96.48V907.57L1231,931.71l-25.52,32.76-35.24,34.08-45,18.08-7.7,7.72Z"/><polygon class="cls-5" points="681.45 888.31 517.17 1035.61 514.64 1063.55 514.64 1265.8 844.54 1289.94 846.23 1232.71 856.9 1167.97 864.47 1128.35 842.86 1122.6 883.69 1050.96 919.45 988.36 967.15 952.32 985.09 923.85 1032.9 910.38 1060.82 882.61 681.45 888.31"/><polygon class="cls-6" points="537.41 1017.46 984.93 938.69 996.08 923.61 1024.27 913.12 1047.22 899.35 1055.3 888.1 700.99 882.61 563.95 981.94 537.41 1017.46"/><polygon class="cls-7" points="520.84 1174.64 782.42 1071.46 857.38 1071.46 844.07 1116.31 844.75 1139.34 864.47 1128.35 864.47 1153.6 844.67 1285.62 620.05 1275.8 527.72 1265.8 513.47 1245.92 520.84 1221.49 520.84 1174.64"/><polygon class="cls-6" points="843.01 1268.69 869.78 1145.01 869.78 1128.14 842.86 1122.6 857.38 1091.28 895.49 1035.61 915.86 994.64 959.11 958.4 976.69 941.99 985.09 923.85 1014.17 918.25 1044.01 907.57 1060.82 885.76 1092.83 888.31 1044.01 945.49 1022.92 956.32 1006.05 967.66 997.93 988.36 974.82 1005.04 954.21 1022.24 932.97 1041.31 924.82 1086.75 909.95 1106.48 922.51 1120.02 922.51 1156.09 881.54 1214.44 873.78 1246.2 865.5 1272.44 845.35 1281.08 843.01 1268.69"/><polygon class="cls-5" points="873.78 1122.6 861.35 1175.73 848.84 1223.58 852.06 1278.2 869.78 1247.18 898.09 1190.87 913.27 1149.52 921.17 1125.15 917.91 1106.48 906.49 1106.48 873.78 1122.6"/><polygon class="cls-7" points="520.84 1166.37 740.84 1071.46 691.87 1064.84 516.07 1155.25 520.84 1166.37"/><path class="cls-6" d="M1025.52,995.08c3.56.65,441.54-330.74,483.93-341.69s40,0,40,0l0,31-13.37,20.46-25.8,12.45-85.4,48-78.28,37.36L1275.5,865l-33.81,56-36.22,43.46-56.72,42.72-35.16,15-25.8,2.12h-48l-19.61-22.62Z"/><path class="cls-5" d="M1072.73,1022.23c0-5.78,120.13-56.78,190.65-156.14,0,0,245.63-186.2,274.39-185.77l2.84,13.39L1518.23,709l-51.83,31.81-68.31,42.4L1316.22,835l-35.92,32.44-33.5,40.12L1186.22,990l-37.47,17.24-27.47,9.44-20,7.72Z"/><path class="cls-8" d="M912.76,1116.31Z"/><path class="cls-8" d="M1230.07,1051.5a36.8,36.8,0,0,0-15.59,8.1c-5.81,4.89-10.59,12.2-15.64,18.8a59.9,59.9,0,0,1-8.46,9,56.22,56.22,0,0,1-10.56,7.17,58.73,58.73,0,0,1-12,4.73,56.33,56.33,0,0,1-12.65,1.78c-2.26.08-4.77.09-7.53.28a41.86,41.86,0,0,0-8.79,1.48,46.47,46.47,0,0,0-15.18,7.65c-8.35,6.29-13.75,12.86-18.36,17.7-4.62,5.06-7.83,8-10.3,9.75a23.1,23.1,0,0,1-6.46,3.46,9.65,9.65,0,0,1-4.73.33,12,12,0,0,1-4.71-2.33,17.29,17.29,0,0,1-3.73-4.09,45.77,45.77,0,0,1-4.22-9.35c-1-2.67-1.93-4.51-3.37-4.84s-3.19,1-4.77,4.06a24,24,0,0,0-1.7,14.89,27.34,27.34,0,0,0,15.39,19.64,26.38,26.38,0,0,0,8,2.16,29,29,0,0,0,8.42-.42,36.94,36.94,0,0,0,14.2-6.51,55.77,55.77,0,0,0,6.55-5.59c2.37-2.34,4.5-4.8,6.81-7.48,4.58-5.31,9.36-11.47,14.87-16.1a28.74,28.74,0,0,1,8.75-5.29c2.91-1.18,6.9-1.49,12.16-2a68.77,68.77,0,0,0,31.06-11.15,66.37,66.37,0,0,0,12.2-10.31,67.85,67.85,0,0,0,8.9-12c4.61-8,7.79-14.86,11.73-19.64a46,46,0,0,1,11.36-9.91c3.17-2,5.17-3.08,5-3.82S1234.14,1050.61,1230.07,1051.5Z"/><path class="cls-8" d="M1561.26,663.3a39.5,39.5,0,0,0-4-13.29,32.54,32.54,0,0,0-9.68-11.38c-1.07-.71-2.14-1.41-3.24-2.06s-2.24-1.09-3.38-1.61-2.35-.84-3.52-1.22-2.42-.57-3.61-.82a39.35,39.35,0,0,0-13.82.23c-8.56,1.62-15.68,5-22.14,8.57s-12,7.3-17.91,10.89q-34.83,21.63-69.13,44.11-68.61,44.89-135,93c-22.1,16-44.15,32.29-65.79,48.92-16.37,12.57-32.85,25-49.23,37.68a29.78,29.78,0,0,0-4.64-.8c-14.92-1.26-29.24-1.32-43.64-1.39s-28.65.23-42.8.38l-85.36,0-170.87-.13-85.49-.06a202.5,202.5,0,0,0-22.48,1,93.1,93.1,0,0,0-23.3,5.63c-14.95,5.83-27.65,14.94-38.92,24.45-5.67,4.77-11,9.68-16.31,14.53l-15.7,14.5-31.36,29-62.77,58c-5,4.66-9.36,11.16-9.55,14.48l-.13,1.68c-1.17.78-1.91,3.27-1.74,6.86,1.82,45-.53,90.59-1.22,136.45-.38,23-.38,46,.84,69.32a41,41,0,0,0,1.91,11.27,23.2,23.2,0,0,0,3.57,6.68,24.44,24.44,0,0,0,5.5,5.23,33.29,33.29,0,0,0,11.5,4.76,72.66,72.66,0,0,0,9.74,1.45l17.22,1.62c5.73.52,11.46.92,17.21,1.38,45.89,3.47,91.67,4.87,137.23,7s90.87,4.87,135.65,11c5.4.65,11.59-.15,13.83-2.14,2.8-2.48,5.67-4.93,8.53-7.39a2.43,2.43,0,0,0,1.34.78c1.43.38,3.65.21,6.49-.34,11.77-2.37,24.47-1.74,37.43.11s26.26,4.87,40.05,7.39,28.26,4.61,43.41,3.71a95.25,95.25,0,0,0,22.69-4.09,104.17,104.17,0,0,0,20.79-9.34c6.34-3.63,12.13-7.48,17.84-10.92l8.65-5.21c2.9-1.72,5.86-3.35,8.77-5.05,11.74-6.7,23.73-13.08,35.86-19.36,24.2-12.55,48.93-24.75,73.2-38.27,12.13-6.8,24.12-14,35.9-21.64l8.71-5.92,4.34-3,4.24-3.13c2.84-2.12,5.71-4.16,8.48-6.34l8.28-6.65c5.39-4.41,11.25-9.33,16.41-16.11a45.19,45.19,0,0,0,6.42-11.63,49.86,49.86,0,0,0,2.75-12.63,107.24,107.24,0,0,0,.4-11.38l-.12-10.35-.34-20.64q-1.61-82.5-6.93-164.89c-.42-6.63-2.79-13.83-5.2-15.95l-2.12-1.87c2.92-4.1,5.83-8.17,8.77-12.18,4-5.35,8-10.68,12.18-15.7,2.08-2.5,4.15-5,6.32-7.31s4.43-4.66,6.8-7A345.75,345.75,0,0,1,1361.09,807c22.57-14.06,46.61-26.11,71.11-38s49.24-23.91,73.26-37.64c6-3.48,12-6.84,18-10.47a135.55,135.55,0,0,0,18.07-12.76,62.73,62.73,0,0,0,15.37-19A45.83,45.83,0,0,0,1561.26,663.3ZM1066.91,901.45a8.41,8.41,0,0,0,1.07-2.14,10.49,10.49,0,0,0,.36-2.41,8.22,8.22,0,0,0-.11-1.39c3.07,0,6.11,0,9.18-.08A191.44,191.44,0,0,1,1052.32,923a147.78,147.78,0,0,1-22.15,16.65,102.34,102.34,0,0,1-11.94,6.26l-3.05,1.3c-.94.44-2.22.88-3.67,1.49a34,34,0,0,0-4.91,2.56,24.46,24.46,0,0,0-2.82,2.16,20.27,20.27,0,0,0-2.51,2.73,23.27,23.27,0,0,0-1.45,2.16c-.46.8-.82,1.54-1.09,2.12-.57,1.26-1,2.33-1.26,3.13-.55,1.49-1.12,2.58-1.66,3.91s-1.3,2.47-2,3.71-1.49,2.41-2.41,3.59a89.63,89.63,0,0,1-12.81,13.52c-9.8,8.71-21.66,17-32.18,28.32-10.35,11.29-18.16,24.12-24.83,36.84-3.36,6.38-6.43,12.78-9.45,19.1s-6.15,12.77-8.86,19.92a9,9,0,0,0-.52,3.09c-.51.06-1,.13-1.51.23a68,68,0,0,0-8.74,2.14c-11.37,3.55-21,9.43-29.78,15.33a5.72,5.72,0,0,0-1,.94l-1.91.07c-.68.06-1.3.14-2,.23l-.88.14.63-1.42c1.64-3.39,4-7.52,6.24-11.34s4.59-7.68,7-11.46A345.62,345.62,0,0,1,903,1047.54a8.66,8.66,0,0,0,1.85-7.58c1.13-3.19,2.35-6.34,3.63-9.47a141,141,0,0,1,8.06-15.53,131.84,131.84,0,0,1,21.73-27.37,129.23,129.23,0,0,1,28-20.77c2.46-1.42,5.4-2.81,8.59-4.7a41.78,41.78,0,0,0,9.86-7.79A29,29,0,0,0,987,951.5a25.37,25.37,0,0,0,2.1-3.61,26.1,26.1,0,0,0,2.2-7.73,23.91,23.91,0,0,0,.15-4.07l-.06-1.05,0-.46v-.08l-.05-.26,2.78-.65c3.23-.71,6.59-1.34,10-2,6.86-1.26,14.06-2.48,21.47-4.39a88.08,88.08,0,0,0,22.21-8.81A57.94,57.94,0,0,0,1066.91,901.45ZM900,1001.73c-3.46-.08-6.93-.18-11.54-.31,5.83-5.54,8.77-8.31,14.61-13.88,2.62.07,4.8.13,6.84.17q-4.22,5.35-8,11.07C901.3,999.74,900.67,1000.75,900,1001.73Zm27.46-37.34,12.72-12.07,9.13.08a157.32,157.32,0,0,0-16.69,12.07C931.09,964.45,929.41,964.43,927.5,964.39Zm-88.71,233c-5.92,26.41-7.48,53.7-3.38,80.82l-4.39-.58c-11.46-1.26-22.93-2.57-34.41-3.51-22.94-2-45.89-3.51-68.79-4.66-45.78-2.31-91.44-3.59-136.79-6.55-11.33-.69-22.63-1.62-33.94-2.54l-16.92-1.59a64.58,64.58,0,0,1-7.35-1,13.69,13.69,0,0,1-4.51-1.6,2.94,2.94,0,0,1-.82-.67,2.64,2.64,0,0,1-.42-.73,19.83,19.83,0,0,1-.8-5.27c-.25-5.5-.56-11.17-.69-16.78-.36-11.25-.4-22.56-.36-33.9.28-45.36,2.71-91.08,2-137.33-.15-5.58-2.12-11.69-4.5-13.54-.63-.48-1.24-.94-1.84-1.43l119.8-110.67c10.41-9.61,20.61-18.87,31.57-26.11a96,96,0,0,1,16.92-9,69.38,69.38,0,0,1,18.08-4.51,178.06,178.06,0,0,1,20.09-1l21.32,0,42.72,0,170.9.14,81.77.07A56.48,56.48,0,0,1,1023.73,906a201.15,201.15,0,0,1-21.48,4.66c-3.8.69-7.7,1.4-11.67,2.26l-3,.68-1.79.42c-.92.23-1.84.5-2.77.73-3.75,1-7.26,2.21-10.77,3.42l-.48,9.6v.06h-26.6q-51.31,48.71-102.63,97.42c17.09.66,25.63,1,42.7,1.62l3.44-3.25q-2,4.73-3.65,9.59a6.91,6.91,0,0,0-.23,3.36q-10.8,12.49-20.43,25.9Q712.32,1052.7,560.15,1046c-3.08-.13-6.57,1.59-7.72,3.82l-6.53,12.45c-1.17,2.24.4,4.15,3.49,4.28q150.79,6.48,301.51,16c-1.16,1.85-2.29,3.69-3.4,5.54l-3.89,6.7c-1.26,2.26-2.52,4.4-3.84,7-.65,1.26-1.28,2.57-1.87,3.91-.14.31-.33.69-.58,1.34l-.68,1.75c-.5,1.15-.81,2.35-1.21,3.52a34.73,34.73,0,0,0-1.54,13.52c.15,1,.3,2,.49,3s.44,1.93.79,2.82a52,52,0,0,0,2.25,5.24l4.14,8.95,10.53-6.62,2.5-1.49c.84-.48,1.62-.77,2.42-1.17.37-.17.82-.4,1.17-.53l1.05-.33,1.07-.32.42-.1.13,0,.44-.07a.55.55,0,0,0,.31,0h0s0,.13,0,.44a19.11,19.11,0,0,1-1.43,5.71c-.44,1.18-1,2.4-1.62,3.61l-2.1,4c-1.57,3.13-3.31,6.18-4.66,9.37A197.28,197.28,0,0,0,838.79,1197.38Zm18.45,83.78a.12.12,0,0,0,0-.08,1.12,1.12,0,0,1,.16.1ZM855,1265.8a180.36,180.36,0,0,1-.84-20.15,211.58,211.58,0,0,1,4.18-39.2,175.81,175.81,0,0,1,11.69-37.3c2.48-6.22,5.65-10.69,9.24-18.77a40.68,40.68,0,0,0,3.38-13.62,19.61,19.61,0,0,0,0-2.17,21,21,0,0,0-.21-2.32c-.13-.84-.3-1.71-.49-2.54s-.5-1.64-.79-2.46l-.34-.69a94.44,94.44,0,0,1,11.65-6.26,55.89,55.89,0,0,1,12.18-3.8c1-.23,2-.27,3-.44a15.23,15.23,0,0,1,2.52-.13,11.62,11.62,0,0,1,1.91.17,5,5,0,0,1,.59.15l.08,0a9.94,9.94,0,0,1,.32,1.53c.06.82.19,1.73.19,2.61a31.74,31.74,0,0,1-2.06,11.19,74.42,74.42,0,0,1-5.8,12.09c-2.33,4.13-5,8.31-7.74,12.82a334.54,334.54,0,0,0-27.17,56.83A401,401,0,0,0,855,1265.8Zm403.41-145a31.62,31.62,0,0,1-1.45,7.56,24.23,24.23,0,0,1-3.38,6.3c-3,4.2-7.6,8.31-12.8,12.51l-7.77,6.26c-2.56,2.1-5.33,4-8,6-5.29,4-10.94,7.68-16.41,11.48-5.67,3.59-11.26,7.31-17.07,10.71-46.14,27.86-97,49.25-144.72,78.49-12,7.33-22.78,14.8-33.95,18.26-11.25,3.68-23.68,4.2-36.46,2.92s-26-4.07-39.53-6.74-27.69-5.27-42.57-5.58a34.31,34.31,0,0,0-10.56,1.45c-3.17,1-5.65,2.31-6.7,3.63s-2.22,2.81-3.25,4.24a379.3,379.3,0,0,1,13.79-50.4A327,327,0,0,1,911.78,1174c2.45-4.28,4.91-8.36,7.66-12.81s5.5-9.09,8-14.17a68.72,68.72,0,0,0,5.94-17,48.83,48.83,0,0,0,.88-9.74c0-1.64-.21-3.32-.34-5a29.51,29.51,0,0,0-1.28-5.75,20.3,20.3,0,0,0-9.11-11.27c1.22-3.11,2.63-6.26,4.12-9.47,3.06-6.51,6.25-13.22,9.44-19.61,6.4-12.84,13.33-25,22-35.22a122.38,122.38,0,0,1,14.53-14.21c5.39-4.58,11.21-9.13,17-14.15a111.71,111.71,0,0,0,16.86-17.4,69.75,69.75,0,0,0,6.91-11c.92-2,1.84-4.1,2.62-6.07.36-.9.61-1.57.78-1.95.06-.17.1-.25.12-.25s0,0,.07-.07a11.63,11.63,0,0,1,1.36-.71c.69-.29,1.62-.65,2.69-1.07l3.5-1.49c1.16-.51,2.33-1,3.47-1.51l3.36-1.68c2.24-1.09,4.4-2.31,6.52-3.57a165.4,165.4,0,0,0,23.77-17,210.08,210.08,0,0,0,38.12-43.09,9.18,9.18,0,0,0,1.28-3.55c10.33-.09,20.59-.07,30.8.19,1.19,0,2.41,0,3.63-.09-40,31.47-79.33,63.44-119.36,94.3-.38-.63-.7-.82-.95-.48-.4.59-.67,2.77-.17,6.29a37.68,37.68,0,0,0,5.06,13.44,49.48,49.48,0,0,0,14.19,14.93,64.31,64.31,0,0,0,22.36,9.5,95.22,95.22,0,0,0,22.78,2.21c3.71-.08,7.39-.34,11.06-.65s7.33-.8,10.92-1.51c.73-.13,1.47-.3,2.2-.42-2.23,1.42-4.47,2.89-6.63,4.41-12.35,8.43-23.68,17.52-31.66,24.26-6.89,5.82-15.91,13.82-25,22.8-11.9-1.07-23.47-1.72-32-1.95a315.57,315.57,0,0,0-34.85.73c-13.1,1.09-26.7,3.53-37,8.36,10.52,4.24,23.58,7,36.49,8.92a310.69,310.69,0,0,0,34.76,3c5.71.15,12.85.19,20.64-.23-1.26,16.73-2.06,32.64-2.5,44.57-1,27.85-2,77.39,4.26,109.83,11.8-31,15.74-81.07,16.73-109.08.44-12.3.69-28.86-.17-46.33,12.53-8.54,24-17.74,32.12-24.56s18.83-16.35,29.24-27.1a218,218,0,0,0,14.93-16.84,84.51,84.51,0,0,0,5.35-7.7c4.91-1.81,9.72-3.86,14.44-6a210,210,0,0,0,19-10.18,260.39,260.39,0,0,0,34.43-25c11.29-10,20.15-21,28.71-32s16.42-22.29,24.27-33.46c.36-.51.72-1,1.07-1.53q4.6,71.19,6.45,142.51.52,20.54.79,41l.15,10.23C1258.65,1114.88,1258.63,1118,1258.38,1120.82Zm280.73-443.48-.61,1.53-.73,1.45a30.57,30.57,0,0,1-1.89,3.09,41.86,41.86,0,0,1-4.94,5.88c-7.49,7.49-18.3,13.68-29.28,20-5.44,3.15-10.87,6.32-16.44,9.28l-8.31,4.52-8.4,4.38c-22.42,11.67-45.51,22.42-68.54,34s-46,24.16-67.49,39.23a369.56,369.56,0,0,0-31,24.36l-7.39,6.57c-2.44,2.18-4.73,4.57-7.08,6.84l-7,6.91c-2.29,2.47-4.66,5-6.84,7.55-8.72,10.21-16.36,20.7-23.87,31.18l-22.09,31.38c-7.32,10.35-14.71,20.57-22.46,30.27-3.86,4.83-7.83,9.55-11.92,13.92-2.08,2.16-4.12,4.39-6.26,6.26-1.07,1-2.08,2-3.21,3l-3.53,2.95c-18.91,15.62-40,28.64-62.64,36.09a169.84,169.84,0,0,1-33.84,7.58c-10.43,1.34-18.76.92-22.9,1a46.71,46.71,0,0,1-23.43-4.85,41,41,0,0,1-7.55-5l.16-.29,0,0c40.62-31.32,80.3-63.56,120.35-95.12q15-11.8,30.13-23.47l30.42-23.23c10.13-7.73,20.23-15.56,30.41-23.18s20.43-15.22,30.69-22.76q61.61-45.21,125.18-87.62,31.8-21.18,64-41.69,16.13-10.26,32.35-20.32l8.12-5c2.69-1.65,5.16-3.17,7.75-4.55,5.06-2.73,10.16-4.91,14.71-5.73s8.13-.28,10.94,1.51a10.51,10.51,0,0,1,3.42,3.44,17.12,17.12,0,0,1,2.06,5.44A24.87,24.87,0,0,1,1539.11,677.34Z"/><path class="cls-8" d="M731.09,927.82h-34q-46.51,44.17-93,88.34c13.44.5,20.15.75,33.57,1.28,7,.25,14.5-1.68,22.75-5.84a106.3,106.3,0,0,0,24.88-18.14c5.48-5.18,9.22-9.8,11.21-13.79s1.66-6.67-.94-8a56.13,56.13,0,0,0,15.57-7,105.22,105.22,0,0,0,17.07-13.29c8.06-7.66,12.26-13.52,12.59-17.51S737.88,927.82,731.09,927.82ZM669,988.72a27.26,27.26,0,0,1-6.34,4.72,11.84,11.84,0,0,1-5.59,1.35l-9.23-.28L661,981.94l9.28.21Q675.77,982.27,669,988.72Zm32.45-32.18a26.92,26.92,0,0,1-6.28,4.68,12.28,12.28,0,0,1-5.71,1.45l-8-.11c5.31-5,7.95-7.55,13.24-12.59l8,.06c1.87,0,2.71.57,2.5,1.62S703.72,954.36,701.41,956.54Z"/><path class="cls-8" d="M687.55,1001.18q-6,9.23-4.62,14.08c.94,3.24,4.12,5,9.55,5.19s12-1.16,19.68-4.13a128.4,128.4,0,0,0,25.24-13.69,216.46,216.46,0,0,0,27.65-22.5l55.11-52.32H799.35L744.7,979.7a76.82,76.82,0,0,1-12.72,10q-6,3.64-10.39,3.52t-2.49-3.85q1.9-3.74,8.57-10.06l54.27-51.53H761.13l-53.81,51.11Q693.57,992,687.55,1001.18Z"/><path class="cls-8" d="M818.41,951.09l-74.13,70.38,20.08.76q37.38-35.47,74.75-71l17.53.16,24.9-23.63H825.43l-24.36,23.13Z"/><path class="cls-8" d="M875.85,951.61l-75.83,72,20.09.76,76.44-72.56,17.53.16,25.45-24.16H883.42l-24.91,23.65Z"/></g></svg>