<svg xmlns="http://www.w3.org/2000/svg" viewBox="0 0 2000 2000"><defs><style>.cls-1{opacity:0.2;}.cls-2{fill:#a0743a;}.cls-3,.cls-6{opacity:0.4;}.cls-4{fill:#fcc98b;}.cls-5{fill:#4c2605;}.cls-7{fill:#fff;}</style></defs><g id="Layer_7" data-name="Layer 7"><g id="Eggs"><path class="cls-1" d="M508.85,1247.16,390.09,1343.5C371,1359,382,1390,406.61,1389.89l905.19-2.32a26.2,26.2,0,0,0,15.88-5.43L1609.41,1165c19.26-14.84,9.56-45.64-14.73-46.77l-168.51-7.83a25.58,25.58,0,0,0-5.66.36L894,1201.7c-.56.1-1.11.18-1.67.24l-369.8,39.54A26.08,26.08,0,0,0,508.85,1247.16Z"/><path class="cls-2" d="M1617.55,733.55a25.14,25.14,0,0,1-.74,3.55l-.71,2.37-21,68.29c-1,3.13-4.37,14.21-9,29.28l-.88,2.86c-.15.5-.29,1-.44,1.47l-.23.75-.38,1.16a25.82,25.82,0,0,1-5.39,8.85,21.29,21.29,0,0,1-1.91,1.89c-.65.57-1.58,1.24-1.72,1.41-.66.57-1.33,1.16-2,1.72-1.45,1.39-3,2.94-4.58,4.49-6.29,6.47-12.86,13.9-19.33,21.27-8.75,10-17.36,20.17-25.08,29.43a22.11,22.11,0,0,1,2,9.2,21.45,21.45,0,0,1-2.42,9.57,11.91,11.91,0,0,1-.73,1.28,21.3,21.3,0,0,1,11.57,10.75,22,22,0,0,1,2.08,9.38,21.68,21.68,0,0,1-2.42,9.57,26.59,26.59,0,0,1-5,6.43l-.9.9-2.73,2.75-9.36,9.4-9.26,9.28-2.83,2.86c-1.39,5.52-2.79,11.14-4.26,16.94-3.78,14.9-7.79,30.75-12.1,47.67l-15,58.4c-11.56,5.65-26.8,13.12-44.12,21.58l-51.45,25-.28-.57c-4.62-.08-9.17-.18-13.62-.27-2.37-.08-4.68-.19-7-.29-4.56-.23-8.92-.44-13.08-.67l-6.13-.4-15.28,15.32-4,4q-1.74,6.21-3.57,12.64c-4.07,14.25-8.38,29.37-13,45.53l-16.13,55.84-44,21.52-50.88,24.69c0,.12-.11.25-.15.38-15.18.06-33.44.1-52.08.16l-50.55-.14-11.59-28.49q-4.33-10.86-8.5-21.25-8.19-20.77-15.53-39.52c-4-10.29-7.75-20.09-11.26-29.33h-16c-.84,3.61-1.75,7.35-2.67,11.21-2,8.1-4,16.75-6.3,26.07q-1.7,7-3.57,14.51c-1.57,6.36-3.23,13-4.93,19.79L963,1315.92l-50.57,24.73c0,.12-.11.25-.15.38-15.2.06-33.44.1-52.1.16l-50.55-.14L798,1312.56l-8.5-21.25q-8.16-20.77-15.54-39.52c-4-10.44-7.85-20.39-11.4-29.75h-1l-10.77,0c-.9,0-1.81,0-2.69,0-.71,3-1.43,6-2.18,9.13-2,8.1-4.05,16.75-6.3,26.07-1.13,4.66-2.33,9.49-3.55,14.53q-2.39,9.51-5,19.77l-44.06,21.88-50.6,24.73c0,.12-.1.25-.14.38-15.2.06-33.44.1-52.11.16-18.09,0-35.83-.1-50.55-.14Q527.78,1324,522.11,1310q-4.35-10.86-8.51-21.22-8.14-20.82-15.53-39.55-5.7-14.71-10.73-28h-1l-11.63,0-9.06,0-4.52,0h-4l-1,0a20.17,20.17,0,0,1-18.33-14.51s-6.57-19.5-9.51-28.36a18.91,18.91,0,0,1-1.32-4v-.1c0-.13-.08-.21-.08-.23l0,0a19.73,19.73,0,0,1,6.9-19.57l7.1-5.6L485.1,1114a202.49,202.49,0,0,1,10.93-55.4c7.48-21.3,18.65-41.16,33.49-57.58a134.41,134.41,0,0,1,24.77-21.72,119.68,119.68,0,0,1,29.22-14.41,106,106,0,0,1,62.33-.92,110.79,110.79,0,0,1,20.25,8.17L689.23,954c-.11-2.56-.15-5.1-.15-7.66A203.81,203.81,0,0,1,700.35,879c7.48-21.32,18.64-41.16,33.49-57.58a139.18,139.18,0,0,1,19.5-18L776.7,671.08l3.11-17.6.21-1.19.4-1.77a28.63,28.63,0,0,1,1.15-3.42,25.4,25.4,0,0,1,3.7-6.19,25.78,25.78,0,0,1,11.67-8.19,25.35,25.35,0,0,1,7.07-1.34l4.66-.15,26.77-.75,71.41-2,285.63-8,285.62-8,71.41-2,8.92-.25c1.58,0,2.59-.17,5.4,0a25.13,25.13,0,0,1,7.05,1.49,25.55,25.55,0,0,1,11.51,8.39,26.33,26.33,0,0,1,3.59,6.26l.61,1.7.33,1.07.67,2.12,10.81,34,10.81,34,5.4,17,1.36,4.26.72,2.29a24.68,24.68,0,0,1,.77,3.51A25.19,25.19,0,0,1,1617.55,733.55Z"/><polygon class="cls-1" points="888.67 733.57 859.08 744.12 849.61 785.27 917.19 842.82 949.17 955.55 967.86 959.87 984.34 872.97 1045.74 803.57 1106.07 785.27 1174.77 824.17 1214.45 880.39 1223.25 955.55 1256.44 960.53 1265.95 884.62 1302.69 814.65 1361.61 790.44 1396.71 791.34 1434.54 819.43 1486.75 857.4 1496.46 919.9 1540.74 726.2 888.67 733.57"/><polygon class="cls-3" points="750.37 1028.79 816.63 995.66 809.67 974.5 834.85 955.24 849.61 973.13 823.2 1003.99 802.68 1026.81 785.82 1055.96 775.55 1088.76 771.58 1114.27 762.97 1128.52 739.61 1120.23 733.81 1098.69 733.81 1077.16 737.45 1067.89 739.61 1051.08 750.37 1028.79"/><path class="cls-4" d="M741.69,1128.46a200.4,200.4,0,0,1-6.09,49.35H502.19a199.45,199.45,0,0,1-6.11-49.35c0-87.37,55-158.2,122.8-158.2,56.72,0,104.46,49.54,118.57,116.86v0c.5,2.38,1,4.77,1.36,7.21A200.77,200.77,0,0,1,741.69,1128.46Z"/><path class="cls-4" d="M1006.29,1128.46a200.88,200.88,0,0,1-6.08,49.35H766.79a202.57,202.57,0,0,1-3.82-79.75c.63-4.26,1.41-8.46,2.31-12.6,11.36-52,42.78-93.05,82.84-108.53a97.43,97.43,0,0,1,35.37-6.67c21.62,0,41.92,7.18,59.55,19.82C980.77,1017.07,1006.29,1068.92,1006.29,1128.46Z"/><path class="cls-4" d="M1289.08,1128.46a204.22,204.22,0,0,1-1.7,26.3l-1.89,1.89-43.72,21.16H1049.58a199.45,199.45,0,0,1-6.11-49.35c0-3.26.09-6.47.21-9.66a200.54,200.54,0,0,1,3.21-27.5,181.81,181.81,0,0,1,18.75-53.51v0l0-.06a148,148,0,0,1,26.77-35.67c20.53-19.94,46.12-31.78,73.83-31.78a99.76,99.76,0,0,1,50.57,14C1259.44,1009.09,1289.08,1064.33,1289.08,1128.46Z"/><path class="cls-4" d="M1501.57,943.49l-.4-1.09-101.44,100.47-56,55.82c-50.71-19.44-87.68-80-87.68-151.61,0-87.37,55-158.19,122.8-158.19C1445.71,788.89,1500.1,857.78,1501.57,943.49Z"/><path class="cls-4" d="M1220.27,947.08a201,201,0,0,1-3.42,37.16c-12.95,69.44-61.49,121-119.39,121a98.5,98.5,0,0,1-43.24-10.1c-2.5-1.19-4.93-2.49-7.33-3.88a181.81,181.81,0,0,1,18.75-53.51v0l0-.06a148,148,0,0,1,26.77-35.67l-15.89-30.8-39.28-5.75-35.81,42.72-7.73,23.6c-12.09-24.5-19.08-53.55-19.08-84.73,0-87.37,55-158.19,122.8-158.19S1220.27,859.71,1220.27,947.08Z"/><path class="cls-4" d="M947.64,947.08a200,200,0,0,1-4.6,43c-14.52,66.48-61.94,115.2-118.2,115.2A100.46,100.46,0,0,1,772.15,1090q-3.49-2.14-6.87-4.58c11.36-52,42.78-93.05,82.84-108.53l-11.07-36-34.38-6.86-33.15,25.82s-30.63,88.86-29.91,91.21l-1.72,7.72C715.74,1030.19,702,990.68,702,947.08c0-87.37,55-158.19,122.81-158.19S947.64,859.71,947.64,947.08Z"/><path class="cls-4" d="M737.45,1087.16c.5,2.38,1,4.77,1.36,7.21l-.71-.11Z"/><path class="cls-4" d="M849.61,981.78l-46.94,39.47-25.53,60.14-5,8.65-5,8.65-4.18-.63c.63-4.26,1.41-8.46,2.31-12.6,11.36-52,42.78-93.05,82.84-108.53Z"/><path class="cls-4" d="M1065.64,1037.79l-11.42,57.39-2,10.1-8.52,13.52a200.54,200.54,0,0,1,3.21-27.5A181.81,181.81,0,0,1,1065.64,1037.79Z"/><path class="cls-4" d="M1093,1003.17l-6,5-21.33,29.5a148,148,0,0,1,26.77-35.67Z"/><path class="cls-1" d="M949.66,934.05l-4,41.6-36.07,1.28-57.33,4.85-17.38-26.53h-4.32c-2-3.82-3.13-8-4.6-12L798.3,941.9l-8,1.72,1.79,0c-.67,2.58-1.54,5.1-2.4,7.64a3.67,3.67,0,0,0-.12.91c-.15.48-.32,1-.46,1.49a2.72,2.72,0,0,0,0,1.55h-8.44l-15,23.89-26,71.94-37-58.76V932a439.75,439.75,0,0,0,63.1,10.22l30.8-27.5,52.33,10.94,6.45,12.15c33-8,61.23-25.4,72-59.47Z"/><path class="cls-1" d="M984.66,955.76S1182.48,973,1197.2,863.92l16.61,45.26,4.24,60.14-10.33,12.73-52.47-9.13-66.14,24.17-12.38-21.44-33.26-8-55.05,52.2-11.54-50.55Z"/><polygon class="cls-3" points="674.62 1213.23 636.49 1317.83 724.26 1282.11 741.69 1213.23 674.62 1213.23"/><polygon class="cls-3" points="953.39 1213.59 915.27 1318.19 1003.03 1282.47 1020.46 1213.59 953.39 1213.59"/><polygon class="cls-3" points="1235.62 1213.23 1197.5 1317.83 1285.27 1282.11 1302.69 1198.34 1235.62 1213.23"/><polygon class="cls-3" points="1405.63 1076.14 1339.99 1158.21 1469.71 1105.42 1480.11 1007.37 1405.63 1076.14"/><polygon class="cls-1" points="836.91 685.1 1552.26 675.96 1540.74 726.2 859.49 737.86 836.91 685.1"/><polygon class="cls-3" points="1055.84 1003.91 1043.47 1070.3 1001.47 1028.79 994.91 1049.62 1020.46 1121.01 1038.28 1133.02 1054.66 1116.34 1061.63 1064.96 1079.36 1028.79 1092.45 1002.04 1079.36 981.78 1055.99 991.96 1050.29 1002.04 1055.84 1003.91"/><path class="cls-1" d="M508.29,1157.07s197.83,17.24,212.55-91.84l16.61,45.26,4.24,60.14-10.33,12.72H551.94l-39.88-2.78-11.54-9.94Z"/><path class="cls-1" d="M780.35,1151.58s197.83,17.24,212.55-91.84l16.6,45.26,4.24,60.14-10.33,12.72H824l-39.88-2.78-11.55-9.94Z"/><path class="cls-1" d="M1062,1151.58s197.83,17.24,212.55-91.84l16.6,45.26,4.24,60.14L1285,1177.86H1105.61l-39.88-2.78-11.55-9.94Z"/><path class="cls-1" d="M1256,964.69s183,40,235.66-80.05l12.87,43.22L1340,1105.28l-47.39-45.54-30.35-46.55-2.11-25.26Z"/><path class="cls-5" d="M780.55,966.37c-.76,2.81,9.63,8,23.17,11.65l2.52.63,5.4,1.32,3.42-3.48c.67-.69.86-.92,1.15-1.26l.84-1c1.12-1.36,2.21-2.79,3.22-4.3a32.43,32.43,0,0,0,4.57-9.38,32.66,32.66,0,0,0-9.65,4c-1.56.92-3.05,1.93-4.48,3-.35.28-.71.53-1.05.78s-.77.61-.71.48a.91.91,0,0,1-.17-.08.31.31,0,0,1,0-.15l-2.29-.65C792.89,964.25,781.3,963.58,780.55,966.37Z"/><path class="cls-5" d="M1051.52,994.92c-.36.25-.72.53-1,.78s-.78.61-.72.48a.25.25,0,0,1-.16-.1.27.27,0,0,1-.07-.15l-2.29-.65c-13.53-3.61-25.14-4.31-25.9-1.49s9.64,8,23.2,11.63l2.5.65,5.41,1.3,3.4-3.46c.69-.72.88-.95,1.16-1.28l.84-1c1.11-1.37,2.2-2.81,3.21-4.3a33.08,33.08,0,0,0,4.6-9.41,32.56,32.56,0,0,0-9.66,4C1054.44,992.88,1052.92,993.89,1051.52,994.92Z"/><path class="cls-5" d="M1617.46,726.35a24.68,24.68,0,0,0-.77-3.51l-.72-2.29-1.36-4.26-5.4-17-10.81-34-10.81-34-.67-2.12-.33-1.07-.61-1.7a26.33,26.33,0,0,0-3.59-6.26,25.55,25.55,0,0,0-11.51-8.39,25.13,25.13,0,0,0-7.05-1.49c-2.81-.13-3.82,0-5.4,0l-8.92.25-71.41,2-285.62,8-285.63,8-71.41,2-26.77.75-4.66.15a25.35,25.35,0,0,0-7.07,1.34,25.78,25.78,0,0,0-11.67,8.19,25.4,25.4,0,0,0-3.7,6.19,28.63,28.63,0,0,0-1.15,3.42l-.4,1.77-.21,1.19-3.11,17.6L753.34,803.41a139.18,139.18,0,0,0-19.5,18c-14.85,16.42-26,36.26-33.49,57.58a203.81,203.81,0,0,0-11.27,67.39c0,2.56,0,5.1.15,7.66l-23.14,18.14A110.79,110.79,0,0,0,645.84,964a106,106,0,0,0-62.33.92,119.68,119.68,0,0,0-29.22,14.41A134.41,134.41,0,0,0,529.52,1001c-14.84,16.42-26,36.28-33.49,57.58A202.49,202.49,0,0,0,485.1,1114l-44.19,34.75-7.1,5.6a19.73,19.73,0,0,0-6.9,19.57l0,0s0,.1.08.23v.1a18.91,18.91,0,0,0,1.32,4c2.94,8.86,9.51,28.36,9.51,28.36a20.17,20.17,0,0,0,18.33,14.51l1,0h4l4.52,0,9.06,0,11.63,0h1q5,13.29,10.73,28,7.37,18.7,15.53,39.55,4.17,10.35,8.51,21.22,5.67,13.95,11.58,28.49c14.72,0,32.46.1,50.55.14,18.67-.06,36.91-.1,52.11-.16,0-.13.1-.26.14-.38l50.6-24.73,44.06-21.88q2.55-10.26,5-19.77c1.22-5,2.42-9.87,3.55-14.53,2.25-9.32,4.35-18,6.3-26.07.75-3.13,1.47-6.17,2.18-9.13.88,0,1.79,0,2.69,0l10.77,0h1c3.55,9.36,7.35,19.31,11.4,29.75q7.34,18.7,15.54,39.52l8.5,21.25,11.59,28.49,50.55.14c18.66-.06,36.9-.1,52.1-.16,0-.13.11-.26.15-.38L963,1315.92l44.08-21.88c1.7-6.84,3.36-13.43,4.93-19.79q1.86-7.53,3.57-14.51c2.25-9.32,4.35-18,6.3-26.07.92-3.86,1.83-7.6,2.67-11.21h16c3.51,9.24,7.27,19,11.26,29.33q7.34,18.7,15.53,39.52,4.16,10.39,8.5,21.25l11.59,28.49,50.55.14c18.64-.06,36.9-.1,52.08-.16,0-.13.11-.26.15-.38l50.88-24.69,44-21.52,16.13-55.84c4.59-16.16,8.9-31.28,13-45.53q1.83-6.42,3.57-12.64l4-4,15.28-15.32,6.13.4c4.16.23,8.52.44,13.08.67,2.29.1,4.6.21,7,.29,4.45.09,9,.19,13.62.27l.28.57,51.45-25c17.32-8.46,32.56-15.93,44.12-21.58l15-58.4c4.31-16.92,8.32-32.77,12.1-47.67,1.47-5.8,2.87-11.42,4.26-16.94l2.83-2.86,9.26-9.28,9.36-9.4,2.73-2.75.9-.9a26.59,26.59,0,0,0,5-6.43,21.68,21.68,0,0,0,2.42-9.57,22,22,0,0,0-2.08-9.38A21.3,21.3,0,0,0,1523,932.39a11.91,11.91,0,0,0,.73-1.28,21.45,21.45,0,0,0,2.42-9.57,22.11,22.11,0,0,0-2-9.2c7.72-9.26,16.33-19.4,25.08-29.43,6.47-7.37,13-14.8,19.33-21.27,1.56-1.55,3.13-3.1,4.58-4.49.67-.56,1.34-1.15,2-1.72.14-.17,1.07-.84,1.72-1.41a21.29,21.29,0,0,0,1.91-1.89,25.82,25.82,0,0,0,5.39-8.85l.38-1.16.23-.75c.15-.49.29-1,.44-1.47l.88-2.86c4.6-15.07,8-26.15,9-29.28l21-68.29.71-2.37a24.9,24.9,0,0,0,.65-10.75ZM710.28,937.53a183.31,183.31,0,0,1,9.76-51.7c6.57-19,16.36-36.57,29.06-50.83a114.36,114.36,0,0,1,21.41-19l1.89.33.15-.88.16-.92A97.25,97.25,0,0,1,794,804.08a87.46,87.46,0,0,1,51-1.51c16.27,4.43,30.82,13.37,42.68,24.46a141.73,141.73,0,0,1,28.36,37.87,158.66,158.66,0,0,1,9.11,20.68,173.62,173.62,0,0,1,6.15,20.78c.27,1.15.53,2.29.78,3.44,1.17,5.4,2,10.75,2.7,16,.87,7,1.35,13.83,1.54,20.49a214.65,214.65,0,0,1-1.87,22.94A111.87,111.87,0,0,0,920.12,964a106.07,106.07,0,0,0-62.35.92q-4.72,1.54-9.3,3.55a10.4,10.4,0,0,0-.14-2.37s-.4-2.08-1.18-6.26c-.38-2.07-.88-4.7-1.45-7.85-.37-2.07-.77-4.34-1.21-6.78-.63-3.59-1.28-7.41-2-11.5l-48.62-5.75c-7.91,7.62-20.44,19.65-33.73,32.43-5.19,17.28-10.81,36.13-16.48,55.11-2.52,8.31-5.06,16.62-7.6,24.85a161.07,161.07,0,0,1-16-33.48,184.56,184.56,0,0,1-9.76-51.45q-.21-4.51-.21-9T710.28,937.53Zm247.35,69.15a140.5,140.5,0,0,1,27,35.39c.46.82.91,1.66,1.35,2.48a154.87,154.87,0,0,1,7.78,17.21c.47,1.16.89,2.31,1.31,3.47a178.1,178.1,0,0,1,6.17,20.78,161.95,161.95,0,0,1,0,79.94c-.36,1.57-.74,3.15-1.16,4.72q-110.05.11-214.69.32a190.74,190.74,0,0,1-4.26-66,181,181,0,0,1,3.38-20.24,176.42,176.42,0,0,1,5.44-19.25c6.59-19,16.37-36.57,29-50.82s28.18-25.17,45-30.92a87.31,87.31,0,0,1,51-1.52,93.93,93.93,0,0,1,15.91,6,99.65,99.65,0,0,1,13.79,8A107.82,107.82,0,0,1,957.63,1006.68Zm-8.46-80.95,15.2-.12c-.56,5.6-.9,11.23-1,16.88l-13.29-2,0,1.28-.21,0C949.8,936.5,949.62,931.17,949.17,925.73Zm290.08,80.95a142,142,0,0,1,28.38,37.87,158.52,158.52,0,0,1,9.09,20.68,174.31,174.31,0,0,1,6.17,20.78,199.66,199.66,0,0,1,5,40c-.13,4.6-.4,9.28-.86,14l-29.35,29.35-1,1c-.06.06,0,.06-.08.08a.55.55,0,0,1-.15.08.34.34,0,0,1-.17,0c-.17,0,.32,0-1,0h-33.4q-78.45,0-155,.06a189.16,189.16,0,0,1-5.33-44.63c0-6.19.29-12.36.9-18.47a179,179,0,0,1,3-20,176.86,176.86,0,0,1,6.08-22.08c6.57-19,16.36-36.57,29.06-50.82s28.15-25.17,44.94-30.92a87.31,87.31,0,0,1,51-1.52,90.92,90.92,0,0,1,9.24,3.07,95.65,95.65,0,0,1,14,6.84A110.73,110.73,0,0,1,1239.25,1006.68Zm-16-83.49q11.46-.09,23-.21c-.67,5.94-1.07,11.93-1.22,17.93l-21-3.17C1224,933,1223.69,928.13,1223.25,923.19Zm26.85,69.13-.42-.38-.15-2.37s0,.06,0,.11v0C1249.7,990.6,1249.91,991.46,1250.1,992.32Zm15.85-46a190.2,190.2,0,0,1,1.45-23.56,182.9,182.9,0,0,1,3.38-19.08,172.2,172.2,0,0,1,5.14-17.88c6.59-19,16.37-36.57,29-50.83s28.18-25.19,45-30.92a87.39,87.39,0,0,1,51-1.51c16.27,4.43,30.81,13.37,42.67,24.46A141.64,141.64,0,0,1,1472,864.9a159.88,159.88,0,0,1,9.09,20.68c1.76,4.91,3.33,9.8,4.64,14.67.56,2,1.07,4.07,1.51,6.11,1.11,4.7,2,9.36,2.73,14,.79,5.25,1.38,10.41,1.74,15.49-1.68,1.68-3.38,3.38-5.08,5l-.23.25c-5,5-10,10-15,15l-120.54,120.24-9,9a109.07,109.07,0,0,1-36.8-27.69c-12.7-14.25-22.48-31.78-29-50.8A185.93,185.93,0,0,1,1266,946.35Zm-249.87,136.51c-.28-1.41-.55-2.83-.88-4.26-1.33-6.13-3.05-12.32-5.06-18.56a168.78,168.78,0,0,0-8.67-21.6c1-2.87,1.91-5.71,2.83-8.54,1.18-3.51,2.31-7,3.44-10.42,1.45-4.28,2.86-8.5,4.24-12.61.7-2.06,1.37-4.09,2.06-6.11.34-1,.67-2,1-3l.1-.32.05-.08.06-.15.12-.31.26-.19.12-.1a2.21,2.21,0,0,0,.28-.24l2.22-2,4.37-3.88c2.87-2.54,5.6-5,8.18-7.27,4.83-4.24,11.13-9.86,10-8.58l.37.1.17.07,0,0,.38,0,.71.12,5.65.91c3.63.56,7,1.11,10.1,1.59,1.55.25,3,.51,4.43.72l2.06.33c.31.07.62.11.94.15l0,0a.46.46,0,0,1,.17.21,1,1,0,0,1-.11.23l0,0c0-.12,0,.28.07.55a7.92,7.92,0,0,0,.1.8c.25,2,.38,3,.38,3,.67,4.11,3.25,8.38,5.73,9.45l13.85,6a2.5,2.5,0,0,0,1.18.23l-1.6,1.74c-14.86,16.42-26,36.28-33.5,57.58a195.61,195.61,0,0,0-5.6,19.09,203.91,203.91,0,0,0-3.89,21.09c-.44,3.43-.82,6.85-1.09,10.29v.06l-.17-.88c-7.49,5.52-15.85,2.39-21.91-1.57v0A195.45,195.45,0,0,0,1016.08,1082.86Zm193-116.44c-2.41-.88-4.87-1.7-7.37-2.44a106,106,0,0,0-62.32.92,119.68,119.68,0,0,0-29.22,14.41,128,128,0,0,0-21.08,17.78,9.3,9.3,0,0,0,0-3.59s-.4-2.08-1.18-6.26q-.59-3.15-1.46-7.85c-.38-2.1-.78-4.37-1.22-6.8-.61-3.57-1.28-7.41-2-11.51-10.68-1.26-28-3.29-48.61-5.73-7.92,7.6-20.45,19.63-33.76,32.44q-3,9.91-6.11,20.42c-.17-.44-.31-.9-.48-1.36a188.9,188.9,0,0,1-8.84-81.43c.61-5.63,1.47-11.21,2.58-16.69a178,178,0,0,1,6.24-22.9c6.59-19,16.37-36.57,29.05-50.83s28.17-25.19,45-30.92a87.39,87.39,0,0,1,51-1.51c16.26,4.43,30.81,13.37,42.67,24.46a141.39,141.39,0,0,1,28.38,37.87,157.18,157.18,0,0,1,9.09,20.68,173,173,0,0,1,5.8,19.29c.12.5.25,1,.35,1.49a170.67,170.67,0,0,1,3.13,17,203.4,203.4,0,0,1,1.89,23C1210.4,952.86,1209.94,959.57,1209.1,966.42Zm-408.74-19,.17.06h.06l.36.06.73.13c1.93.29,3.82.59,5.63.88,3.63.59,7,1.11,10.1,1.62l4.45.71,2,.34.93.14,0,0c.1.08.17.14.17.21a.46.46,0,0,1-.11.21l0,.06c0-.13,0,.27.06.55s.07.54.11.79c.27,2,.4,3,.4,3,.67,4.14,3.25,8.4,5.71,9.47l12,5.19a126.55,126.55,0,0,0-14.64,8.46A133.13,133.13,0,0,0,803.8,1001c-14.86,16.42-26,36.28-33.5,57.58-1.68,4.81-3.19,9.7-4.49,14.66a199.6,199.6,0,0,0-4.45,21.51q-1.17,7.82-1.77,15.71c-5.5,0-10.81-2.86-14.78-5.75a184.58,184.58,0,0,0-3-21.88c-.27-1.43-.54-2.85-.88-4.28-.4-1.83-.82-3.63-1.3-5.46l.9.27c2-6.19,4-12.47,6-18.78,3.84-12,7.79-24.12,11.7-36,3-9,5.94-17.94,8.79-26.53q2.14-6.45,4.22-12.64c.69-2.05,1.39-4.09,2.06-6.08.33-1,.67-2,1-3l.1-.31,0-.09.07-.14.12-.3.25-.21.13-.08c.06,0,0,0,.27-.23l2.25-2c1.47-1.3,2.94-2.6,4.36-3.88l8.19-7.26c4.81-4.24,11.13-9.87,10-8.59ZM690.57,971.24a197.86,197.86,0,0,0,3.63,21.08,127.08,127.08,0,0,0-14.8-12.07C683.14,977.23,686.88,974.23,690.57,971.24ZM505.88,1119.6a188.12,188.12,0,0,1,2.25-23.68h0a174.2,174.2,0,0,1,7.58-30.44c6.59-19,16.35-36.57,29-50.82s28.17-25.17,44.94-30.92a87.38,87.38,0,0,1,51-1.52,91.87,91.87,0,0,1,8.82,2.9,98.57,98.57,0,0,1,14.82,7.22,110.92,110.92,0,0,1,19,14.34,141.89,141.89,0,0,1,28.36,37.87,156,156,0,0,1,9.11,20.68A174.17,174.17,0,0,1,727,1086a161.63,161.63,0,0,1,0,79.94q-.57,2.58-1.26,5.16-86.88.2-168.92.46l-45.49.15c-1.2-4.83-2.21-9.7-3-14.65a187.39,187.39,0,0,1-2.22-20.28c-.21-3.59-.32-7.18-.32-10.79C505.75,1123.86,505.8,1121.74,505.88,1119.6Zm131,161.85q-1.89,4.65-3.82,9.44c-1.53,3.8-3.1,7.67-4.68,11.57q-2.14,5.38-4.34,10.85l-1.09,2.78-.55,1.36-.13.29-.08.09-.08,0h-.51c-.88,0-1.76,0-2.66,0l-11.09-.07c-7.6,0-15.57,0-23.64,0-7.8,0-15.55,0-22.92,0l-10.73.07H548a1.49,1.49,0,0,0-.4,0h0l-.08,0q-8.16-19-15.68-36.59-9-20.48-17-38.94-4.82-10.9-9.34-21,11,0,22.13.08h0l39.65.13q46.32.18,94.28.27-4.19,9.95-8.67,20.7-5.32,12.93-11.06,26.93C640.23,1273.37,638.57,1277.38,636.91,1281.45Zm93-54.5c-4.15,14.86-8.9,31.72-14.48,51.6l-.55.17-4.37,2q-4.65,2.14-9.82,4.49c-6.84,3.15-14.32,6.6-22.23,10.23L647.22,1310l.06-.15c2.71-7.24,5.38-14.32,8-21.22.55-1.52,1.11-3,1.66-4.5,3.25-8.86,6.42-17.42,9.44-25.69h0c1.15-3.15,2.28-6.28,3.42-9.34q5.19-14.26,9.76-27.23c1.93,0,3.86,0,5.79,0h0l15.45,0q14.4,0,28.93.09h1.62Q730.67,1224.42,730,1227Zm182.89,57c-.86,2.12-1.72,4.24-2.61,6.4q-2.9,7.18-5.89,14.61c-1.43,3.57-2.88,7.2-4.35,10.85l-1.09,2.75-.55,1.39-.12.29,0,0-.07.06-.08,0h0l-.49,0h-2.66l-11.09-.07c-7.59,0-15.57,0-23.63,0l-22.93,0c-3.67,0-7.26,0-10.72,0-.89,0-1.75,0-2.59,0a2.17,2.17,0,0,0-.42,0l-.08,0-15.68-36.59q-8.94-20.47-17-38.94-5.24-11.88-10.14-22.76c7.16,0,14.36,0,21.58.06l136.13.24q-4.59,10.83-9.51,22.65-4.65,11.29-9.63,23.45C917.12,1273.53,915,1278.72,912.84,1284Zm93-54.5c-4.17,14.84-8.9,31.7-14.48,51.6-.17,0-.36.11-.55.15l-4.36,2c-3.11,1.43-6.4,2.92-9.83,4.47l-22.25,10.25-31.26,14.57s.05-.11.07-.15q4.06-10.86,7.95-21.22c1-2.82,2.06-5.59,3.07-8.34q5.1-13.79,9.82-26.64c.55-1.53,1.12-3,1.66-4.55,3.74-10.23,7.22-20,10.48-29.2h21.24l26.39,0h4.07Q1006.89,1225.91,1005.87,1229.49Zm184.78,54.5c-1,2.35-1.89,4.72-2.86,7.11q-2.76,6.84-5.62,13.9c-1.43,3.57-2.88,7.2-4.35,10.85l-1.09,2.75-.57,1.39-.1.29h0v0l-.09.06-.08,0h0l-.46,0h-2.67l-11.08-.07c-7.6,0-15.58,0-23.64,0l-22.92,0c-3.68,0-7.29,0-10.75,0-.86,0-1.72,0-2.58,0a1.88,1.88,0,0,0-.4,0h0l-.07,0q-8.17-19-15.7-36.59-8.91-20.47-17-38.94-5.13-11.65-9.93-22.36h3.15l22.15,0q65.29,0,132.14,0-4.56,10.77-9.44,22.49-4.89,11.92-10.17,24.75Q1193.61,1276.74,1190.65,1284Zm78.38-3.3-.35.11-4.37,2-9.7,4.5c-6.82,3.17-14.27,6.65-22.23,10.37L1201,1312.39s0,0,0,0q4.07-10.86,8-21.22c.79-2.19,1.59-4.33,2.39-6.47q4.78-13.1,9.3-25.34l2.85-7.72q5.55-15.27,10.44-29.06h31.82a25,25,0,0,0,4.51-.31,21.28,21.28,0,0,0,5.15-1.55,22,22,0,0,0,4.6-2.73c.69-.57,1.4-1.2,2-1.79l1-1c2.49-2.48,5-5,7.51-7.52l1.72-1.72C1285.28,1228.42,1277.6,1253.17,1269,1280.69Zm96.7-142.62c-.36,1-.74,1.93-1.1,2.9l-.52,1.45-.13.35s0,0,0,0v0c0,.14,0,.33,0,.54a1.66,1.66,0,0,1-.69.26l-7,.29c-.76,0-1.49.08-2.23.1l15.08-15.07C1368,1132.07,1366.84,1135.09,1365.73,1138.07Zm100.59-70.83q-4.78,17.16-10,35.86l-.36.1c-1.34.63-2.75,1.26-4.18,1.93l-9.7,4.5c-6.82,3.19-14.27,6.67-22.23,10.37-9.69,4.55-20.11,9.46-30.9,14.52.11-.27.23-.52.34-.79,3.19-7.56,6.42-15.43,9.68-23.54l.63-1.57q2-5,4-10c.34-.86.65-1.7,1-2.56l1.66-4.24,1.78-1.79,0,0,32.06-32.16q20.12-20.19,40-40.12C1475.83,1033.19,1471.23,1049.61,1466.32,1067.24Zm25.15-89.78a0,0,0,0,1,0,0l-9.66,9.63q-28.93,28.88-58.42,58.28-17.28,17.25-34.76,34.68l-27.36,27.29-9,9-15,15-8.06,8.06c-2.27,2.27-4.55,4.53-6.82,6.82-.59,0-1.18.09-1.76.15v1.6l-8.78,8.75a1.81,1.81,0,0,1-.31.31c-1.91,1.91-3.82,3.85-5.76,5.76l-8.29,8.29-29.35,29.35-1,1c-.06.06,0,.06-.09.08a.37.37,0,0,1-.14.09.59.59,0,0,1-.17,0c-.17,0,.31,0-1,0h-40.74q-74.7,0-147.6.06h-28.28c-5.48,0-10.93,0-16.39,0h-6.53q-6.21,0-12.39,0h-3.25q-23.75,0-47.21,0-8.13,0-16.23,0h0q-77,.06-151.23.23-10.77,0-21.47,0h-2.92c-5.5,0-11,0-16.42,0h-3.23c-4.93,0-9.89,0-14.8,0h-.86l-49.8.12c-5.52,0-11,0-16.52,0q-52.23.12-102.61.29-22.95.06-45.49.17c-7.2,0-14.36,0-21.47.06h-3.21c-1.43,0-2.84,0-4.24,0l-12.43,0-23.45.07c-.73-.09-1-.15-1.41-.59a2.5,2.5,0,0,1-.63-1.7,2.07,2.07,0,0,1,.78-1.45l6.76-5.44,4.39-3.52,8.9,0,6.59,0,9,0c1.22,0,2.42,0,3.64,0q11,0,22.12.09h0l39.66.12q57.75.2,118,.34h0l15.45,0q14.38,0,28.93.08l16.87,0,4.2,0,10.77,0h4.28c3.7,0,7.41,0,11.13,0,1,0,2,0,3,0l22.19,0q78.35.15,159.94.27h15.28l26.39,0h17c2.19,0,4.37,0,6.57,0h14.91q6.39,0,12.78,0h6.76l22.15,0q73.27,0,148.46,0h33.4a25.33,25.33,0,0,0,4.51-.32,20.48,20.48,0,0,0,5.14-1.55,20.84,20.84,0,0,0,4.6-2.75,21.34,21.34,0,0,0,2-1.76l1-1c2.5-2.5,5-5,7.52-7.51q9.78-9.83,19.6-19.63l11.65-11.65q11.28-11.31,22.49-22.53,7.11-7.11,14.19-14.21l17.53-17.53q16.05-16.12,32-32.05l0,0,32-32.16q28.35-28.41,56.18-56.31c1.7-1.7,3.4-3.4,5.08-5.1l5.62-5.62C1494.85,965.56,1493.17,971.45,1491.47,977.46ZM1502,900h-.63c0-.28-.13-.53-.17-.8l3.36.75Zm-3.85-12.87c-.65-2.25-1.32-4.49-2-6.74a173.89,173.89,0,0,0-9.32-23,156,156,0,0,0-30.82-43.28c-13.31-13-30.21-24.06-49.88-29.81a106.23,106.23,0,0,0-62.35.94,119.81,119.81,0,0,0-29.22,14.4,133.7,133.7,0,0,0-24.75,21.73c-14.86,16.42-26,36.26-33.5,57.58a195.84,195.84,0,0,0-7,25.13l-28.63.5c-.07-.46-.17-.92-.26-1.38a183.55,183.55,0,0,0-5.92-22.82,171.21,171.21,0,0,0-9.32-23,155.76,155.76,0,0,0-30.81-43.28c-13.31-13-30.21-24.06-49.88-29.81a106.23,106.23,0,0,0-62.35.94,119.81,119.81,0,0,0-29.22,14.4,133.7,133.7,0,0,0-24.75,21.73c-14.86,16.42-26,36.26-33.5,57.58a193.17,193.17,0,0,0-7.94,30.17l-19.44.38q-.5-3.12-1.13-6.3a185.46,185.46,0,0,0-5.94-22.82,172.39,172.39,0,0,0-9.3-23A155.88,155.88,0,0,0,900,814.12a122.41,122.41,0,0,0-40.95-26.77c.37-5.6,1.26-15.53,3.21-23.21s6-16.69,8.18-21.25c14.66.13,30.74.23,48.08.38,22.08.06,46.31,0,72.25-.11,51.92-.29,110.72-1,173-2.28l369.51-7.31c-9,31.45-16.59,63.33-21.54,85.63C1507.76,837.15,1502.66,861.46,1498.12,887.13Zm98.63-156.58a5.2,5.2,0,0,1-.11.67l-.08.31-.32,1-2.69,8.76-5.39,17.48-21.52,70c-.46,1.49-.92,3.05-1.4,4.64-.23.8-.49,1.6-.72,2.41a7,7,0,0,1-.27.84,5.26,5.26,0,0,1-.84,1.37l-.27.31-.17.15-.55.48-2.56,2.31a30.26,30.26,0,0,0-2.27,2.23l-2.09,2.18c-1.43,1.49-2.63,2.94-4,4.41-2.6,2.94-5,5.92-7.37,8.86-9.38,11.82-17.28,23.32-21.26,31.11-2.19,4.43-4.29,8.88-6.43,13.33a18.85,18.85,0,0,0-3.59-1.87c8.06-28.84,14.8-57.37,19.36-77.8,8.9-40,23.38-111.65,24.7-159.22a486.22,486.22,0,0,0-17.33,47.92l-376.25,7.45c-62.28,1.22-121.06,2.8-173,4.56-25.92.88-50.15,1.81-72.19,2.75l-31.42,1.45-14.4.73-6.87.36c-.9.1-1.78.21-2.66.29-.32-.5-.63-1-.93-1.47l-.48-.77c-.34-.61-.69-1.22-1-1.85q-2.09-3.69-4-7.18c-2.62-4.64-5.1-9-7.39-13.08-4.66-8.12-8.71-15-12.11-20.59-6.82-11.13-11-16.92-12.07-16.4s1.11,7.35,6,19.44c2.46,6.05,5.61,13.42,9.39,22,1.91,4.28,3.94,8.86,6.13,13.73l3.4,7.49q.47,1,.9,2c.4.8.78,1.63,1.18,2.45-.3,5.13-1.14,16.73-3.22,24.94-2,8-6.06,16.8-8.25,21.25a107.18,107.18,0,0,0-52.58,3.31c-3.61,1.2-7.18,2.59-10.69,4.14L798,671.22l1.59-9c.51-2.71,1.16-6.87,1.31-6.87a4.67,4.67,0,0,1,4.11-3l36.36-1,73.18-2.06,292.74-8.2L1500,632.85l36.59-1,18.31-.52,4.58-.13,2.28-.06h.49a2.11,2.11,0,0,1,.33,0,4.47,4.47,0,0,1,2.44,1,4.76,4.76,0,0,1,1.51,2.18l2.75,8.65,5.54,17.44,11.06,34.89,10.73,33.9A4,4,0,0,1,1596.75,730.55Z"/><g class="cls-6"><path class="cls-7" d="M551.12,1054.31a57.87,57.87,0,0,1-5.51,11.18c-1.86,2.76-3.67,4.28-5,3.85s-1.89-2.71-1.73-6.07a41.88,41.88,0,0,1,2.9-12.57,93.09,93.09,0,0,1,5.62-11.72,70.31,70.31,0,0,1,11.32-15.11,47,47,0,0,1,13.8-9.77c4.11-1.79,7-2.08,7.23-1.48s-2,2.18-5.2,4.8a63.07,63.07,0,0,0-10.49,11.09,79.07,79.07,0,0,0-8.45,14.66C553.48,1047.93,552,1052.09,551.12,1054.31Z"/></g><g class="cls-6"><path class="cls-7" d="M753.12,863c-2.8,4.41-5.35,8.41-7.52,11.29-.53.72-1.08,1.35-1.57,1.91a11.54,11.54,0,0,1-1.41,1.4,2.65,2.65,0,0,1-2.37.84c-.65-.22-1.09-1-1.3-2.14a12.71,12.71,0,0,1-.15-2.09,21.1,21.1,0,0,1,.27-2.64,38.61,38.61,0,0,1,5.59-13.92A73,73,0,0,1,753.94,846a84.54,84.54,0,0,1,7.64-7,86,86,0,0,1,8.91-6.2c1.54-.91,3.09-1.76,4.62-2.55s3.08-1.48,4.6-2.08a35.33,35.33,0,0,1,8.53-2.28,19.11,19.11,0,0,1,6.11.13c1.43.29,2.18.73,2.15,1-.06.74-3.13,1-7.34,2.6a45.29,45.29,0,0,0-7,3.52c-1.24.76-2.51,1.61-3.8,2.52s-2.59,1.9-3.87,2.92a94.7,94.7,0,0,0-7.41,6.57c-2.28,2.33-4.45,4.65-6.28,6.94A96.94,96.94,0,0,0,753.12,863Z"/></g><g class="cls-6"><path class="cls-7" d="M814.54,1057.17c-2.11,5-4,9.4-5.63,12.65s-3,5.34-4.42,5.21-2.44-2.63-2.5-6.7a39.22,39.22,0,0,1,3.32-15,116.45,116.45,0,0,1,6.84-13.27,93.92,93.92,0,0,1,12.79-17.31,58.6,58.6,0,0,1,7.94-7,41.76,41.76,0,0,1,7.71-4.51c4.73-2.09,8-2.39,8.25-1.8s-2.53,2.25-6.26,5.15a57.11,57.11,0,0,0-6.06,5.4,67.54,67.54,0,0,0-6.18,7.33,110.37,110.37,0,0,0-10.09,17.12C817.56,1049.93,815.57,1054.69,814.54,1057.17Z"/></g><g class="cls-6"><path class="cls-7" d="M1029.05,862.67a93.73,93.73,0,0,1-8.07,11.8c-.31.36-.61.7-.91,1s-.42.33-.61.51l-.52.44a3.8,3.8,0,0,0-.42.48c-.51.73-.43,1.17-1,1.38a2.29,2.29,0,0,1-1.36.1,2.32,2.32,0,0,1-1.51-1.19,4.27,4.27,0,0,1-.45-1.25,7.36,7.36,0,0,1-.1-1.57,8.55,8.55,0,0,1,.26-1.7c.08-.44.18-.89.29-1.37a50,50,0,0,1,5.82-13.78,101.23,101.23,0,0,1,8.72-12.21A84.53,84.53,0,0,1,1045,830.5a59.32,59.32,0,0,1,17.27-8.68c4.9-1.45,8.21-1.47,8.36-.85s-2.71,2-6.83,4.43A81,81,0,0,0,1049.39,836a94.32,94.32,0,0,0-12.89,15C1033,855.89,1030.47,860.31,1029.05,862.67Z"/></g><g class="cls-6"><path class="cls-7" d="M1095.2,1071.75c-1.85,5.2-3.55,9.62-4.87,12.93s-2.47,5.53-3.88,5.57-2.77-2.35-3.13-6.5a29,29,0,0,1,.32-7.12,47.58,47.58,0,0,1,2.12-8.19c1-2.8,2.92-7.74,5.69-13.68a84.45,84.45,0,0,1,11.4-18.48,46.38,46.38,0,0,1,15.3-12.25c4.73-2.21,8.1-2.46,8.29-1.86s-2.57,2.19-6.24,5.17a55,55,0,0,0-11.68,13.16,95.1,95.1,0,0,0-8.59,17.86C1097.79,1064.11,1096.12,1069.17,1095.2,1071.75Z"/></g><g class="cls-6"><path class="cls-7" d="M1306.52,875.44c-4,7-7.29,13.48-9.87,18.25-.71,1.17-1.22,2.27-1.78,3.22a22.53,22.53,0,0,1-1.57,2.41c-1,1.3-1.86,2-2.53,1.8s-1.08-1.14-1.23-2.81a28.21,28.21,0,0,1,.41-6.89,68,68,0,0,1,7.91-21c.59-.93,1.31-2,2.13-3.35l1.33-2.06a26.72,26.72,0,0,1,1.55-2.25l3.73-4.94c1.39-1.71,3-3.44,4.56-5.29a114.92,114.92,0,0,1,24.37-20.22c1.11-.76,2.3-1.37,3.45-2l3.42-1.88c1.11-.65,2.29-1.14,3.42-1.67l3.34-1.52,1.63-.72,1.63-.6,3.14-1.14c1-.35,2-.74,3-1l2.81-.76c1.8-.45,3.41-.93,4.88-1.18s2.76-.43,3.81-.54c2.1-.24,3.31-.22,3.39.12s-1,1-2.87,1.82c-1,.43-2.12.91-3.46,1.44s-2.8,1.29-4.44,2a124.58,124.58,0,0,0-23.15,13.5,120.72,120.72,0,0,0-21.36,20.39c-1.38,1.78-2.75,3.45-4,5.08l-3.23,4.68a23.05,23.05,0,0,0-1.35,2.1c-.41.68-.8,1.32-1.16,1.93C1307.69,873.54,1307,874.58,1306.52,875.44Z"/></g></g></g></svg>