<svg xmlns="http://www.w3.org/2000/svg" viewBox="0 0 2000 2000"><defs><style>.cls-1{opacity:0.2;}.cls-2{fill:#a0743a;}.cls-3{fill:#4c2605;}.cls-4{fill:#ffd097;}.cls-5{opacity:0.4;}.cls-6{fill:#fff;}</style></defs><g id="Layer_2" data-name="Layer 2"><g id="Flour"><ellipse class="cls-1" cx="1000" cy="1324.87" rx="584.84" ry="184.24"/><path class="cls-2" d="M1461.65,941.68q-.23,21.15-1.6,41.83c-1,13.8-2.41,27.27-3.8,40.43-2.81,26.41-5.9,52.19-10.41,77.07s-10.18,48.83-18,71.33a306.7,306.7,0,0,1-24.84,54.58c1,1.38,1.89,2.81,2.84,4.3,2.22,3.59,4.36,7.29,6.59,11.36a153.91,153.91,0,0,1,12.19,28.42,113.09,113.09,0,0,1,4.25,20.37c.23,1.74.29,3.52.44,5.29s.12,3.65.06,5.45a75.93,75.93,0,0,1-1,10.86,72,72,0,0,1-6.57,21,58.75,58.75,0,0,1-13.73,18.22,52,52,0,0,1-20.57,11.21,58.79,58.79,0,0,1-22.82,1.68,73.63,73.63,0,0,1-21.07-6.15c-6.41-2.86-12.16-6.17-17.66-9.3q-13.38-7.74-25-14.17c-2.94-1.64-5.73-3.17-8.42-4.68-8.14,6.36-16.91,12.8-26.47,19-10.64,6.88-22.1,13.71-34.38,20.19a508.8,508.8,0,0,1-83,34.45c-15.26,4.81-31.34,9.11-47.82,12.55-16.43,3.7-33.46,6.64-50.9,9.28a734.19,734.19,0,0,1-109.39,7.62c-9.45.09-18.81-.4-28.11-.65-4.64-.25-9.28-.52-13.88-.8-2.31-.14-4.62-.27-6.9-.42s-4.58-.39-6.87-.58c-18.26-1.39-36.13-3.87-53.57-6.51-8.69-1.6-17.34-2.9-25.78-4.75l-12.62-2.6c-4.09-.9-8.16-1.78-12.21-2.69-16.27-3.52-32.25-7.18-47.68-11.23-30.81-8.14-59.68-17.82-84.66-31.34a189.33,189.33,0,0,1-17.82-10.89c-2.86-1.87-5.52-4-8.21-6-2.58-2.18-5.21-4.24-7.6-6.55a99.6,99.6,0,0,1-17.76-21.33,89,89,0,0,1-16.35,8.57,96.2,96.2,0,0,1-23.68,6.26,91.5,91.5,0,0,1-32.66-1.29,66.71,66.71,0,0,1-16.23-5.87,38.07,38.07,0,0,1-14.53-13.31,41.7,41.7,0,0,1-6.21-18.2,44.05,44.05,0,0,1,2.1-18.85c4.2-12.07,13-21.35,23.07-27.31a52.47,52.47,0,0,1,14-5.78,211.52,211.52,0,0,1,18.2-42.49,325,325,0,0,1,26.26-39.46c19.19-24.9,40.89-47.34,63.35-68.56A559.34,559.34,0,0,1,696.62,1050a485.94,485.94,0,0,1-18.24-94.6,530.61,530.61,0,0,1-2.43-54.2c.08-18.07.86-36.13,2.52-54.1,1.4-14.88,3.17-29.36,5.54-43.24,2.2-13.88,5-27.29,8.25-39.93,6.55-25.29,15.55-47.54,25.88-64.74A150.32,150.32,0,0,1,731.56,680a171.62,171.62,0,0,1-20.87-40.15,176.21,176.21,0,0,1-10.58-55.11c0-2.5,0-5-.06-7.51s.18-5.06.29-7.6a79.88,79.88,0,0,1,2.41-16.42,46.09,46.09,0,0,1,3.38-8.77,41.38,41.38,0,0,1,2.56-4.31,33.89,33.89,0,0,1,3.43-4.15,31.1,31.1,0,0,1,19.75-9.62,25.45,25.45,0,0,1,12.49,2.25,36.35,36.35,0,0,1,8.9,6.13c4.07,3.73,8,7.41,12,11.56a105.45,105.45,0,0,1,11.33,13.8,64.41,64.41,0,0,1,6.15,11.27,782.67,782.67,0,0,1,251.72-73.52c57.14-6.29,112-5.43,160.24.45A623.08,623.08,0,0,1,1308.82,523c3.3-2,7-4.26,11.11-6.88,5.08-3.21,10.81-7,17.36-10.67,7.89-4.47,16.37-9,26-12.15,5-1.57,10.73-2.94,17.59-2.16a27.32,27.32,0,0,1,10.29,3.4,28.22,28.22,0,0,1,7.93,7,38.75,38.75,0,0,1,7.16,16.61,59.93,59.93,0,0,1,.71,16.1,116.48,116.48,0,0,1-2.24,14.48c-1,4.58-2.16,8.84-3.23,13.25a211.15,211.15,0,0,1-6.11,20.28c-.72,1.93-1.52,3.8-2.33,5.62a118.74,118.74,0,0,1,11.56,15,148.83,148.83,0,0,1,12.14,23c1.78,3.9,3.1,7.89,4.64,11.82,1.28,4,2.72,7.93,3.82,11.9,2.41,7.93,4.28,15.85,6.13,23.7s3.4,15.62,5,23.28q1.2,5.73,2.39,11.4t2.48,11.36q5.07,23,8.78,45.89a839.52,839.52,0,0,1,9.61,90.12C1460.93,884.79,1461.94,913.42,1461.65,941.68Z"/><path class="cls-1" d="M593.85,1159.75c-13.5,16.81,18.54,51.55,30.12,61.06,25.11,20.63,56.8,28.42,87.58,37.4a1033.5,1033.5,0,0,0,198.53,37.33c64.88,5.64,133.27,4.13,196.11-14.61,46-13.44,89-36.57,123.47-70.06,164.71-159.89,194.07-385,131-580.81l12.89-38.2,33.88,33.85,48.94,268.65-23.92,234.93-35.9,96.8,23.93,71.65-9.79,40.38-46,27-63.85-43.26-15.25,7.61-107.66,57.65L1020.21,1423H870.12l-199-47.86-56.39-26.26-15.4-28.12-46.77,9.79L508,1319.63l-9.88-33.72,9.88-21.75,23.83-4.35L558,1204.34Z"/><path class="cls-1" d="M692.43,898.09s181.11,72.73,294.15,56.6l-199.74,55.79-80.93,41.11-16-109.18Z"/><path class="cls-1" d="M718.7,591.86s19.9,55.45,41.22,63.85l-20.61,23.7-15.8-31.3-10.44-34Z"/><path class="cls-3" d="M1459.61,855.36a839.52,839.52,0,0,0-9.61-90.12q-3.69-22.83-8.78-45.89-1.23-5.67-2.48-11.36t-2.39-11.4c-1.57-7.66-3.21-15.45-5-23.28s-3.72-15.77-6.13-23.7c-1.1-4-2.54-7.91-3.82-11.9-1.54-3.93-2.86-7.92-4.64-11.82a148.83,148.83,0,0,0-12.14-23,118.74,118.74,0,0,0-11.56-15c.81-1.82,1.61-3.69,2.33-5.62a211.15,211.15,0,0,0,6.11-20.28c1.07-4.41,2.28-8.67,3.23-13.25a116.48,116.48,0,0,0,2.24-14.48,59.93,59.93,0,0,0-.71-16.1,38.75,38.75,0,0,0-7.16-16.61,28.22,28.22,0,0,0-7.93-7,27.32,27.32,0,0,0-10.29-3.4c-6.86-.78-12.57.59-17.59,2.16-9.66,3.17-18.14,7.68-26,12.15-6.55,3.72-12.28,7.46-17.36,10.67-4.14,2.62-7.81,4.93-11.11,6.88a623.08,623.08,0,0,0-114.15-24.72c-48.29-5.88-103.1-6.74-160.24-.45a782.67,782.67,0,0,0-251.72,73.52,64.41,64.41,0,0,0-6.15-11.27,105.45,105.45,0,0,0-11.33-13.8c-4-4.15-7.9-7.83-12-11.56a36.35,36.35,0,0,0-8.9-6.13,25.45,25.45,0,0,0-12.49-2.25,31.1,31.1,0,0,0-19.75,9.62,33.89,33.89,0,0,0-3.43,4.15,41.38,41.38,0,0,0-2.56,4.31,46.09,46.09,0,0,0-3.38,8.77,79.88,79.88,0,0,0-2.41,16.42c-.11,2.54-.19,5.08-.29,7.6s0,5,.06,7.51a176.21,176.21,0,0,0,10.58,55.11A171.62,171.62,0,0,0,731.56,680a150.32,150.32,0,0,0-13.42,19.21c-10.33,17.2-19.33,39.45-25.88,64.74-3.26,12.64-6,26.05-8.25,39.93-2.37,13.88-4.14,28.36-5.54,43.24-1.66,18-2.44,36-2.52,54.1a530.61,530.61,0,0,0,2.43,54.2,485.94,485.94,0,0,0,18.24,94.6,559.34,559.34,0,0,0-62.41,51.24c-22.46,21.22-44.16,43.66-63.35,68.56a325,325,0,0,0-26.26,39.46,211.52,211.52,0,0,0-18.2,42.49,52.47,52.47,0,0,0-14,5.78c-10.06,6-18.87,15.24-23.07,27.31a44.05,44.05,0,0,0-2.1,18.85,41.7,41.7,0,0,0,6.21,18.2A38.07,38.07,0,0,0,508,1335.18a66.71,66.71,0,0,0,16.23,5.87,91.5,91.5,0,0,0,32.66,1.29,96.2,96.2,0,0,0,23.68-6.26,89,89,0,0,0,16.35-8.57,99.6,99.6,0,0,0,17.76,21.33c2.39,2.31,5,4.37,7.6,6.55,2.69,2,5.35,4.16,8.21,6a189.33,189.33,0,0,0,17.82,10.89c25,13.52,53.85,23.2,84.66,31.34,15.43,4,31.41,7.71,47.68,11.23,4.05.91,8.12,1.79,12.21,2.69l12.62,2.6c8.44,1.85,17.09,3.15,25.78,4.75,17.44,2.64,35.31,5.12,53.57,6.51,2.29.19,4.58.4,6.87.58s4.59.28,6.9.42c4.6.28,9.24.55,13.88.8,9.3.25,18.66.74,28.11.65a734.19,734.19,0,0,0,109.39-7.62c17.44-2.64,34.47-5.58,50.9-9.28,16.48-3.44,32.56-7.74,47.82-12.55a508.8,508.8,0,0,0,83-34.45c12.28-6.48,23.74-13.31,34.38-20.19,9.56-6.22,18.33-12.66,26.47-19,2.69,1.51,5.48,3,8.42,4.68q11.6,6.42,25,14.17c5.5,3.13,11.25,6.44,17.66,9.3a73.63,73.63,0,0,0,21.07,6.15,58.79,58.79,0,0,0,22.82-1.68,52,52,0,0,0,20.57-11.21A58.75,58.75,0,0,0,1421.8,1334a72,72,0,0,0,6.57-21,75.93,75.93,0,0,0,1-10.86c.06-1.8,0-3.65-.06-5.45s-.21-3.55-.44-5.29a113.09,113.09,0,0,0-4.25-20.37,153.91,153.91,0,0,0-12.19-28.42c-2.23-4.07-4.37-7.77-6.59-11.36-1-1.49-1.89-2.92-2.84-4.3a306.7,306.7,0,0,0,24.84-54.58c7.87-22.5,13.58-46.48,18-71.33s7.6-50.66,10.41-77.07c1.39-13.16,2.79-26.63,3.8-40.43s1.45-27.73,1.6-41.83C1461.94,913.42,1460.93,884.79,1459.61,855.36Zm-17.53,127c-.82,13.35-2,26.62-3.25,39.82-2.5,26.26-5.21,51.69-9.28,76s-9.19,47.55-16.42,69.2a298.47,298.47,0,0,1-20.25,47.84,32.33,32.33,0,0,0-8-5.34c-4.05-1.78-6.72-1.61-7.43-.42s.33,3.45,2.12,6.62a131.81,131.81,0,0,1,6.71,13.26c1.26,2.88,2.57,6.13,4,9.75s3,7.59,4.62,11.73c3.28,8.21,6.82,17.05,9.59,26.22a91.94,91.94,0,0,1,3.49,16.58c.19,1.37.21,2.75.33,4.12s.09,2.66.07,4a55.67,55.67,0,0,1-.72,8,51.12,51.12,0,0,1-4.66,15,37.21,37.21,0,0,1-8.81,11.8,30.63,30.63,0,0,1-12.33,6.71,37.42,37.42,0,0,1-14.63,1c-9.84-1.13-20-6.57-30.84-12.82a226,226,0,0,0-27-13.4c-4.31-1.78-8.46-3.29-12.39-4.59a84.42,84.42,0,0,0-11.73-3.17,38.05,38.05,0,0,0-10.9-.46,20.4,20.4,0,0,0-8.35,2.62,10.63,10.63,0,0,0-4,3.88c-.59,1.22-.59,2.1-.15,2.67,1,1.2,3.3.86,6.42,1.3a37,37,0,0,1,10.77,3.32c-6.59,4.49-13.52,9-20.93,13.39-10.51,6.19-21.81,12.34-33.86,18.22a531.5,531.5,0,0,1-81,31.11c-14.88,4.35-30.23,8.17-46.37,11.3-16.06,3.33-32.68,6-49.67,8.41a766.3,766.3,0,0,1-106.45,6.89c-9.17.08-18.26-.38-27.31-.59-4.51-.25-9-.5-13.5-.73l-6.69-.38-6.68-.57c-17.76-1.24-35.12-3.52-52.08-5.94-8.44-1.45-16.86-2.6-25.09-4.3L797.07,1398l-12.32-2.52c-16.29-3.28-32-6.57-47.13-10.23-30.16-7.28-58.08-15.91-81.62-27.66a180.37,180.37,0,0,1-16.71-9.41c-2.66-1.59-5.1-3.44-7.59-5.14s-4.79-3.57-6.93-5.52A86.53,86.53,0,0,1,607,1317.46a18.55,18.55,0,0,0,.88-1.7c1.43-3.38,1.09-5.65-.1-6.4s-3.2-.19-5.8.73-6,2.14-10.56,3.38-10.49,2.69-16.81,4.2a198,198,0,0,1-20.43,3.84,70.53,70.53,0,0,1-25.21-.9,47,47,0,0,1-11.08-3.93A17.9,17.9,0,0,1,514,1314a15.54,15.54,0,0,1-2.83-3.38c-3.34-5.13-4.14-12.85-2-19,2.16-6.36,7.34-12.22,13.93-16.08a49.61,49.61,0,0,1,16.82-6.19,55.58,55.58,0,0,1,15.2-.53c8.86.84,14.78,3.61,16.92,1.45a2.68,2.68,0,0,0,.5-2.37,9.94,9.94,0,0,0-1.64-3.84c-1.89-2.94-5.6-6.53-11.21-9.35a41.55,41.55,0,0,0-11.08-3.71c8.46-24.46,22.61-47.32,38.84-68.46,18.18-23.59,39.15-45.32,61.13-66.08a533.14,533.14,0,0,1,148.71-100,542.78,542.78,0,0,1,133.95-40c10.66-1.83,21-3.17,31.34-4.43s20.24-2.46,29.85-3.42a439.94,439.94,0,0,1,53.19-2.5c16.17.4,30.67,2.1,43,5.06a137.91,137.91,0,0,1,16.92,5.08c2.58.88,4.89,2,7.22,2.92,2.2,1.09,4.39,2,6.36,3.08a134.31,134.31,0,0,1,17.57,11.07c3.88,2.85,6.09,4.34,6.65,3.82s-.63-2.88-3.71-6.87a78.47,78.47,0,0,0-16.25-15c-2-1.42-4.16-2.72-6.42-4.17-2.35-1.28-4.77-2.8-7.43-4a128.79,128.79,0,0,0-17.72-7.2c-13-4.33-28.43-7.2-45.43-8.59s-35.62-1.24-55.36,0c-9.88.61-20,1.45-30.41,2.39s-21.31,2.08-32.33,3.68a516.26,516.26,0,0,0-139.6,40,546.39,546.39,0,0,0-73.85,40.26,463.89,463.89,0,0,1-15.62-84.18,513,513,0,0,1-2.35-52.17c.08-17.44.82-34.88,2.43-52.27,1.37-14.4,2.94-28.46,5-42q2.8-20.31,6.74-38.61c5.22-24.28,12.24-45.44,20.17-62.22a195.06,195.06,0,0,1,23-37.47c1.64-2.06,3-4,4.3-5.58s2.42-2.94,3.26-4.1c1.68-2.35,2.37-3.86,1.93-4.42s-2-.17-4.66,1.19c-1.33.67-2.9,1.58-4.75,2.71s-3.71,2.75-5.92,4.47c-2,1.68-4.3,3.65-6.67,5.92a166.45,166.45,0,0,1-23.22-84.45c0-2.23.08-4.47.15-6.72s.29-4.49.44-6.76a62.86,62.86,0,0,1,2.12-12.49,25.56,25.56,0,0,1,2.08-5,20,20,0,0,1,1.32-2.12,14.45,14.45,0,0,1,1.43-1.61,13.8,13.8,0,0,1,3.57-2.52,9.55,9.55,0,0,1,3.54-1,5.25,5.25,0,0,1,2.61.53,17.82,17.82,0,0,1,3.82,2.91c3.61,3.43,7.32,7.06,10.66,10.67a85.05,85.05,0,0,1,9,11.27,40.54,40.54,0,0,1,4.63,9.17c-.33.19-.69.36-1,.53l5.89,12.15c30.82-13.45,69.7-29.2,115.15-42.88a878.34,878.34,0,0,1,152.84-31.87,774,774,0,0,1,155.87-1.57,729.5,729.5,0,0,1,101,16.64,2.22,2.22,0,0,0-.06.51c.06,1.45,1.64,2.68,4.68,3.67a25.72,25.72,0,0,0,5.56.86,40.4,40.4,0,0,0,7.33-.36l.86-.14,1.2.29.15-.52a74.48,74.48,0,0,0,15.49-4.77,180.71,180.71,0,0,0,18.83-9.59c7.51-4.28,14.86-8,22.08-10.44,3.42-1.11,6.61-1.59,8.63-1.3a5.68,5.68,0,0,1,2.27.7,7.17,7.17,0,0,1,2,1.78,14,14,0,0,1,1.85,3.3,24.44,24.44,0,0,1,1.26,4.38,39.61,39.61,0,0,1,.42,10.44,100.39,100.39,0,0,1-1.87,11.82c-.84,4.11-2.06,8.39-3.09,12.59-1.8,7-3.15,13.81-4.28,19.88s-2.21,11-3.32,15-2.18,7.28-3,9.8-1.15,4.45-.27,5.65,3,1.41,6,.15a18.77,18.77,0,0,0,4-2.31,93,93,0,0,1,6.87,9.21,126.42,126.42,0,0,1,10.51,19.76c1.62,3.38,2.82,7,4.22,10.54,1.18,3.63,2.5,7.18,3.55,10.89,2.27,7.31,4.1,14.84,5.92,22.38s3.38,15.18,5,22.86c.84,3.84,1.66,7.7,2.5,11.52s1.72,7.65,2.58,11.44q5.07,22.46,8.84,44.74a828.81,828.81,0,0,1,10.07,88c1.56,29,2.84,57.54,2.82,85.12Q1443.22,962.29,1442.08,982.38Z"/><path class="cls-4" d="M891.4,823.81c-15.1,2.72-22.63,4.17-37.67,7.28-1.23-5.93-1.84-8.89-3.06-14.82,17.32-3.58,26-5.24,43.41-8.31-1.56-8.84-2.34-13.26-3.89-22.1Q852.42,792.5,815,801.05q9.84,43,19.67,86.06c11.69-2.67,17.55-4,29.29-6.38-2.29-11.06-3.43-16.59-5.72-27.66,14.81-3.06,22.24-4.49,37.11-7.17C893.79,837.07,893,832.65,891.4,823.81Z"/><path class="cls-4" d="M941.05,843.66l-9.54-64.5c-12.56,1.86-18.84,2.86-31.37,5l14.73,87c23.08-3.7,46.07-7,69.26-10-1.1-9.16-1.65-13.75-2.74-22.91C965.23,840.2,957.16,841.28,941.05,843.66Z"/><path class="cls-4" d="M1085.19,808.52c-1.28-27.94-28.19-43.83-55.23-42.68s-50.65,24.94-47.57,51.1c3,25,29,44,55.09,40.89S1086.41,835.29,1085.19,808.52Zm-49.67,25.32c-11.14.9-20.9-6.51-22.23-20.2s7.14-22.86,18.62-23.8,21.33,6.76,22.26,20.47S1046.67,832.91,1035.52,833.84Z"/><path class="cls-4" d="M1154.38,810.44c0,13.5-5.27,18.53-13.77,18.61s-13.86-4.85-14.11-18.34l-.9-47.66c-12.7.23-19,.42-31.73.92.77,19.41,1.16,29.11,1.93,48.52.14,25.14,21.26,40.87,44.79,40.64s44.36-16.35,44-41.49c.4-19.42.6-29.13,1-48.54-12.49-.26-18.73-.32-31.22-.32Z"/><path class="cls-4" d="M1285.44,801.85c2.08-22.91-19.55-35.88-40-36.34-18.14-1.09-27.21-1.49-45.34-2q-1.37,44.12-2.67,88.23c12,.36,18,.61,29.91,1.22.47-8.88.68-13.31,1.14-22.17,3.29.17,4.93.25,8.23.44,5.62,9.22,8.39,13.84,13.83,23.09,12.76.87,19.15,1.37,31.91,2.5-6.47-11.52-9.78-17.25-16.54-28.69C1277.21,823.51,1284.28,814.5,1285.44,801.85Zm-44.53,7.09c-4.49-.25-6.74-.38-11.25-.61.44-8.27.65-12.4,1.07-20.65,4.56.23,6.82.35,11.38.63,8.63.5,12.47,4.7,12,11.1S1249.39,809.45,1240.91,808.94Z"/><g class="cls-5"><path class="cls-6" d="M848.64,592.45C832.05,599,817.05,605,806.05,609.08c-2.77,1-5.25,1.94-7.46,2.71s-4.14,1.39-5.75,1.83c-3.22.89-5.15,1.09-5.45.47s1-2,3.74-4c1.36-1,3-2.12,5-3.38s4.28-2.67,6.89-4.08A358,358,0,0,1,845,583.14c4.23-1.58,10.26-3.9,17.65-6.51l12-4.12c4.31-1.42,8.92-2.84,13.7-4.36,19.2-5.92,41.86-11.85,63.65-16.3s42.69-7.54,58.13-9.15c3.87-.39,7.38-.78,10.49-1s5.81-.39,8-.49c4.43-.21,6.94-.17,7,.17s-2.4,1-6.74,1.83l-18.2,3.34c-15.19,2.79-35.75,6.85-57.12,12.19s-43.59,11.85-62.4,18.18c-4.69,1.62-9.2,3.13-13.42,4.62L866,585.84C858.73,588.54,852.82,590.9,848.64,592.45Z"/></g><g class="cls-5"><path class="cls-6" d="M727.71,1087.66c-10,7.76-19,14.77-25.81,19.65s-11.34,7.6-12.31,6.59,1.94-5.49,7.58-11.84a193.79,193.79,0,0,1,24.42-22.31c5.16-3.89,14.77-11.12,26.92-18.79a412.74,412.74,0,0,1,41-22.91,354.24,354.24,0,0,1,38.79-16.15c2.62-.89,5-1.72,7.13-2.36s4-1.16,5.53-1.55c3.07-.8,4.85-1.1,5-.78s-1.43,1.26-4.25,2.66c-1.42.71-3.15,1.52-5.17,2.44l-6.74,3.19c-10,4.66-23.34,11.17-37,18.82s-27.58,16.34-39.16,24.33S732.76,1083.86,727.71,1087.66Z"/></g></g></g></svg>