<svg xmlns="http://www.w3.org/2000/svg" viewBox="0 0 2000 2000"><defs><style>.cls-1,.cls-2{opacity:0.2;}.cls-2{fill:#75c2ec;}.cls-3{fill:#fffab6;}.cls-4{fill:#efa706;}.cls-5{opacity:0.3;}.cls-6{fill:#4c2605;}.cls-7{opacity:0.4;}.cls-8{fill:#fff;}</style></defs><g id="Layer_5" data-name="Layer 5"><g id="Milk"><path class="cls-1" d="M1181.79,1306.52l3.59,32.29a11,11,0,0,0,4.2,7.49L1215,1366a11,11,0,0,0,4,2l64.56,16.85a11,11,0,0,0,2.79.36h41a11.13,11.13,0,0,0,4-.76l43-16.84c.32-.12.65-.23,1-.33l21.12-6.07a11.06,11.06,0,0,0,3.35-1.62h0a11,11,0,0,1,13.38.45l5.74,4.69a11,11,0,0,1,.23,16.89c-22.14,19.14-85,59.56-199.64,32.65-47.15-12-66.37-19.26-74.2-23.21a11.09,11.09,0,0,0-11.9,1.15L980.16,1513.51a11.06,11.06,0,0,1-7.21,2.37l-413.48-13.42a11,11,0,0,1-6.46-19.69l92.06-72.36a11,11,0,0,1,4.51-2.11L1168.52,1297A11,11,0,0,1,1181.79,1306.52Z"/><path class="cls-2" d="M1451.22,1015c0,.19,0,.36,0,.55s0,.14,0,.23l0,.27a18.28,18.28,0,0,1-.32,2.56l-42.11,340.14a6.41,6.41,0,0,1-2.71,4.43c-1.09.73-27.31,18.39-68,25.95a194.55,194.55,0,0,1-35.41,3.25c-34.12,0-76.1-9.09-119.49-40.43a6.31,6.31,0,0,1-2.58-4.49L1149.18,1018c-.08-.49-.1-1-.15-1.47l-.08-1v-.21c0-.13,0-.25,0-.38s0-.29,0-.44,0-.25,0-.36c1.33-30.37,76.62-46.24,151.08-46.24s149.93,15.91,151.09,46.35c0,.12,0,.25,0,.4S1451.22,1014.85,1451.22,1015Z"/><path class="cls-3" d="M1199.89,1185.3s79.09-28.71,142.24,5.74l56.12-3.83-19.77,152.44-44,21-61.56-3.83-51.33-17.22-17.27-13.4L1194.19,1192Z"/><path class="cls-1" d="M1200.4,1188.94s19.72,30.42,59.41,32.83,88.29-26.16,88.29-26.16l-44.42-18.88-54.42-2.65-31,6Z"/><path class="cls-3" d="M1150.42,1318.14a19.9,19.9,0,0,1-.08,2.67,24.51,24.51,0,0,1-3.19,10.12,24.85,24.85,0,0,1-3.15,4.3c-.59.65-1.24,1.28-1.89,1.87l-1,.86-.67.52c-6.47,5-13,10-19.44,15.06l-77.3,59.87-38.24,29.6-19,14.71-2.37,1.83-1.18.92-.84.63c-.34.25-.71.5-1.07.74a24.35,24.35,0,0,1-9.66,3.69,24.89,24.89,0,0,1-2.6.27l-1.24,0h-9.7l-187.71-.21q-46-.06-91.09-.14c-3.75,0-7.49,0-11.25,0h-6.29l-1.2,0a17.16,17.16,0,0,1-2.37-.25,21.65,21.65,0,0,1-4.66-1.17,24,24,0,0,1-15.87-21.86c-.05-.94,0-1.23,0-1.74v-4.18q.08-22.26.11-44.25.23-88,.42-171.4c.42-111.09.82-215.57,1.2-311.9q.15-36.12.35-70.68c.07-11.51.11-22.91.17-34.14l0-1.05c0-.33,0-1,0-1.53a20.75,20.75,0,0,1,.45-3.23,22.62,22.62,0,0,1,.92-3.11c.19-.5.4-1,.63-1.49s.54-1.07.67-1.3c1.3-2.46,2.62-4.91,3.93-7.37q3.93-7.34,7.8-14.59l58.91-110a7.27,7.27,0,0,0,.63-1.78,7.55,7.55,0,0,0,.15-1c0-.38,0-.46,0-1.22q0-3.68-.07-7.43,0-7.46-.1-15-.09-15.15-.21-30.75t-.19-31.64c0-2.66,0-5.35-.06-8l0-4a28.22,28.22,0,0,1,.37-5.44,21.58,21.58,0,0,1,16.42-17.06l136-25.86,72.46-13.69,37.33-7.06c6.28-1.17,12.59-2.37,18.91-3.56l9.53-1.79,1.2-.23.67-.1,1-.15a22.53,22.53,0,0,1,3.94-.21,23.38,23.38,0,0,1,7.79,1.68,23,23,0,0,1,11.63,10.45,22.41,22.41,0,0,1,2.5,7.62,15,15,0,0,1,.19,2c0,.67.08,1.4.06,1.7l0,2.45q0,9.86.07,19.78.06,19.86.14,40.05t.13,40.73l0,5.12v1.2a3.31,3.31,0,0,0,0,.44,5.21,5.21,0,0,0,.17.84,5.11,5.11,0,0,0,.86,1.59l3.09,4.16q6.17,8.28,12.4,16.62,24.88,33.42,50.51,67.81,6.39,8.6,12.83,17.23l1.61,2.17a30.22,30.22,0,0,1,2.19,3.25,23.85,23.85,0,0,1,2.89,8.65l.11,1.13.06,1,.08,1.34.15,2.71.29,5.42q1.14,21.69,2.34,43.66,4.65,87.86,9.55,179.9t9.8,187.46q2.49,47.71,5,96.21,1.26,24.26,2.49,48.66l.32,6.11.17,3.07,0,.75Z"/><polygon class="cls-4" points="647.78 1211.64 959.77 1211.64 1119.91 1120.16 1139.96 1324.92 981.36 1458.06 655.78 1458.06 647.78 1415.59 647.78 1211.64"/><polygon class="cls-5" points="1014.68 612.97 941.96 790.54 969.17 1454.54 1139.26 1312.99 1108.64 739.52 1014.68 612.97"/><path class="cls-5" d="M997.81,504s26.9,104.35-125.73,129.57l151.33-12.29-1.29-119.38-20.7-5.44Z"/><polygon class="cls-4" points="1021.34 582.26 723.31 617.42 723.31 599.81 1020.12 564.81 1021.34 582.26"/><polygon class="cls-4" points="1021.34 564.67 1020.12 564.81 1018.95 547.91 723.31 590.26 723.31 572.64 1018.95 530.3 1021.34 564.67"/><polygon class="cls-4" points="989.81 855.16 986.95 989.89 992.68 998.38 1004.65 1006.14 1078.29 957.92 1075.44 815.21 1064.59 808.35 989.81 855.16"/><path class="cls-6" d="M1150.42,1318.14l0-1.09,0-.75-.17-3.07-.32-6.11q-1.26-24.4-2.49-48.66-2.52-48.45-5-96.21-5-95.43-9.8-187.46T1123,794.89q-1.17-22-2.34-43.66l-.29-5.42-.15-2.71-.08-1.34-.06-1-.11-1.13a23.85,23.85,0,0,0-2.89-8.65,30.22,30.22,0,0,0-2.19-3.25l-1.61-2.17q-6.43-8.62-12.83-17.23Q1074.85,674,1050,640.55q-6.23-8.34-12.4-16.62l-3.09-4.16a5.11,5.11,0,0,1-.86-1.59,5.21,5.21,0,0,1-.17-.84,3.31,3.31,0,0,1,0-.44v-1.2l0-5.12q-.06-20.54-.13-40.73t-.14-40.05q0-9.91-.07-19.78l0-2.45c0-.3,0-1-.06-1.7a15,15,0,0,0-.19-2,22.41,22.41,0,0,0-2.5-7.62,23,23,0,0,0-11.63-10.45,23.38,23.38,0,0,0-7.79-1.68,22.53,22.53,0,0,0-3.94.21l-1,.15-.67.1-1.2.23-9.53,1.79c-6.32,1.19-12.63,2.39-18.91,3.56l-37.33,7.06-72.46,13.69-136,25.86a21.58,21.58,0,0,0-16.42,17.06,28.22,28.22,0,0,0-.37,5.44l0,4c0,2.69,0,5.38.06,8q.09,16.06.19,31.64t.21,30.75q.06,7.59.1,15,0,3.75.07,7.43c0,.76,0,.84,0,1.22a7.55,7.55,0,0,1-.15,1,7.27,7.27,0,0,1-.63,1.78L654,770.16q-3.87,7.25-7.8,14.59c-1.31,2.46-2.63,4.91-3.93,7.37-.13.23-.46.84-.67,1.3s-.44,1-.63,1.49a22.62,22.62,0,0,0-.92,3.11,20.75,20.75,0,0,0-.45,3.23c0,.5,0,1.2,0,1.53l0,1.05c-.06,11.23-.1,22.63-.17,34.14q-.18,34.56-.35,70.68c-.38,96.33-.78,200.81-1.2,311.9q-.2,83.33-.42,171.4-.06,22-.11,44.25v4.18c0,.51,0,.8,0,1.74A24,24,0,0,0,653.2,1464a21.65,21.65,0,0,0,4.66,1.17,17.16,17.16,0,0,0,2.37.25l1.2,0h6.29c3.76,0,7.5,0,11.25,0q45.06.09,91.09.14l187.71.21h9.7l1.24,0a24.89,24.89,0,0,0,2.6-.27,24.35,24.35,0,0,0,9.66-3.69c.36-.24.73-.49,1.07-.74l.84-.63,1.18-.92,2.37-1.83,19-14.71,38.24-29.6,77.3-59.87c6.48-5,13-10.06,19.44-15.06l.67-.52,1-.86c.65-.59,1.3-1.22,1.89-1.87a24.85,24.85,0,0,0,3.15-4.3,24.51,24.51,0,0,0,3.19-10.12A19.9,19.9,0,0,0,1150.42,1318.14Zm-21,.44a2.36,2.36,0,0,1,0,.38,3,3,0,0,1-.46,1.47,2.87,2.87,0,0,1-.47.63,1.15,1.15,0,0,1-.27.27l-.69.55L1108.12,1337q-38.92,30.13-77.29,59.89-19.18,14.87-38.21,29.64l-16.39,12.73c-2.06-76.52-4.83-163.66-8.28-256.49-2.89-77.65-5.94-151.5-9-218.32-1.62-33.4-3.13-65-4.56-94.55-.75-14.73-1.51-29-2.22-42.57q-.54-10.23-1.09-20c-.17-3.26-.36-6.47-.53-9.66-.1-1.58-.19-3.15-.27-4.72l-.13-2.25-.08-.74,23.85-56.11c7.11-17,13.16-31.67,17.95-43.7,9.61-24.08,14.29-37.6,13-38.19s-8.4,11.84-20.21,34.91c-5.92,11.53-13,25.72-21.14,42.26q-6,12.43-12.93,26.55c-2.29,4.71-4.62,9.56-7,14.53l-6,12.58c-25.36-.17-54.58.12-85.86,1-95.66,2.67-173.08,9.53-172.93,15.33s77.86,8.33,173.52,5.64c30.35-.84,58.71-2.09,83.48-3.61.47,21.5,1,44.68,1.45,69.36.78,29.54,1.62,61.22,2.5,94.64,1.91,66.86,4.35,140.73,7.22,218.38,3.53,94.9,7.29,183.79,11,261.46h-.19l-187.71.19q-46,.09-91.09.14c-3.75,0-7.49,0-11.25,0l-5.6,0h-.69l-.24,0a1,1,0,0,1-.39,0,2.07,2.07,0,0,1-.76-.19,4.06,4.06,0,0,1-2.33-2.09,4.23,4.23,0,0,1-.36-1.54s0-.63,0-1.07V1439l0-2.8q0-22.26-.08-44.25-.22-88-.44-171.4c-.42-111.09-.8-215.57-1.18-311.9q-.15-36.12-.36-70.68c-.06-11.51-.12-22.91-.16-34.14v-1.64a5,5,0,0,1,.1-.94,7.86,7.86,0,0,1,.25-.92c.07-.15.13-.3.19-.44l.27-.57c1.31-2.48,2.59-5,3.87-7.41q3.84-7.39,7.64-14.7,30.32-58.44,57.45-110.73a21.93,21.93,0,0,0,1.91-5.08,20.16,20.16,0,0,0,.45-2.71c.08-.84.1-2,.1-2.48,0-2.45,0-4.93,0-7.43,0-5,.09-10,.11-15q.12-15.15.21-30.75t.21-31.64c0-2.66,0-5.35,0-8a65.25,65.25,0,0,1,.17-6.67,6.64,6.64,0,0,1,5.08-5.1l135.71-24.29q35.55-6.39,72.57-13.06,18.52-3.3,37.39-6.72c6.28-1.13,12.6-2.29,19-3.42l9.53-1.72,1.19-.21a4.4,4.4,0,0,1,.55-.11h.23a4.34,4.34,0,0,1,.88-.06,6.49,6.49,0,0,1,1.7.4,5.23,5.23,0,0,1,2.58,2.37,4.37,4.37,0,0,1,.53,1.66,3.24,3.24,0,0,1,0,.44,5.72,5.72,0,0,1,0,.76V510q0,9.86-.06,19.78-.11,19.86-.15,40.05t-.13,40.73l0,2.39a3.46,3.46,0,0,0-.46,0c-.21,0-1.28.1-2.1.17l-5.2.44c-3.53.31-7.1.61-10.75.94q-10.93,1-22.51,2.06c-15.45,1.45-31.67,3.11-48.47,5-101.6,11.09-183.51,24.65-182.88,30.42s83.53,1.55,185.17-9.55c16.8-1.85,33-3.76,48.41-5.69l22.46-2.94,10.71-1.51,5.25-.76c1-.14,2.93-.41,4.87-.79l.18.29,3.07,4.16q6.14,8.31,12.3,16.71,24.72,33.52,50.13,68l12.76,17.32,1.6,2.17a9.53,9.53,0,0,1,.84,1.21,4.67,4.67,0,0,1,.52,1.58q.26,5,.51,10.05,1,21.71,2.14,43.67,4.35,87.89,8.9,179.94t9.43,187.49q2.42,47.7,4.89,96.2,1.23,24.26,2.47,48.66l.32,6.11.15,3.07,0,.75,0,.36Z"/><polygon class="cls-6" points="690.08 1169.34 708.59 1169.34 708.59 1142.81 721.69 1163.91 730.64 1163.91 743.74 1141.86 743.91 1169.34 762.43 1169.34 762.25 1109.05 745.54 1109.05 726.42 1141.17 706.79 1109.05 690.08 1109.05 690.08 1169.34"/><rect class="cls-6" x="772.26" y="1109.05" width="20.33" height="60.29"/><polygon class="cls-6" points="802.41 1109.05 802.41 1169.34 849.96 1169.34 849.96 1153.58 822.74 1153.58 822.74 1109.05 802.41 1109.05"/><polygon class="cls-6" points="855.56 1109.05 855.56 1169.34 875.55 1169.34 875.55 1154.44 880.11 1149.36 895.18 1169.34 918.7 1169.34 893.38 1135.58 917.49 1109.05 895.36 1109.05 875.55 1130.92 875.55 1109.05 855.56 1109.05"/><path class="cls-6" d="M1075.73,805a18.63,18.63,0,0,0-19.08.4l-67,41.23a19,19,0,0,0-9,16.08V992.09a18.63,18.63,0,0,0,9.65,16.46,19,19,0,0,0,9.22,2.43,18.71,18.71,0,0,0,9.86-2.83l67-41.23A19.07,19.07,0,0,0,1083,960a18.8,18.8,0,0,0,2.42-9.2V821.49A18.6,18.6,0,0,0,1075.73,805Zm-2.92,145.81a6.19,6.19,0,0,1-3,5.35l-67,41.23a6.27,6.27,0,0,1-9.55-5.33V862.74a6.32,6.32,0,0,1,3-5.36l67-41.23a6.08,6.08,0,0,1,3.23-.94,6.5,6.5,0,0,1,3.11.82,6.09,6.09,0,0,1,3.21,5.46Z"/><path class="cls-6" d="M1080.74,981.3l-85,51.87a6.3,6.3,0,0,0,6.56,10.76l85-51.88a6.3,6.3,0,0,0-6.56-10.75Z"/><path class="cls-6" d="M1080.74,1007.06l-85,51.88a6.3,6.3,0,0,0,6.56,10.75l85-51.87a6.3,6.3,0,0,0-6.56-10.76Z"/><path class="cls-6" d="M1080.74,1033.17l-85,51.88a6.3,6.3,0,0,0,3.29,11.67,6.19,6.19,0,0,0,3.27-.92l85-51.87a6.3,6.3,0,0,0-6.56-10.76Z"/><path class="cls-6" d="M1451.2,1014.66c0-.15,0-.28,0-.4-1.16-30.44-76.56-46.35-151.09-46.35s-149.75,15.87-151.08,46.24c0,.11,0,.23,0,.36s0,.29,0,.44,0,.25,0,.38v.21l.08,1c0,.5.07,1,.15,1.47l31.39,329.43a6.31,6.31,0,0,0,2.58,4.49c43.39,31.34,85.37,40.43,119.49,40.43a194.55,194.55,0,0,0,35.41-3.25c40.64-7.56,66.86-25.22,68-25.95a6.41,6.41,0,0,0,2.71-4.43l42.11-340.14a18.28,18.28,0,0,0,.32-2.56l0-.27c0-.09,0-.15,0-.23s0-.36,0-.55S1451.2,1014.76,1451.2,1014.66Zm-54.62,339.53a188.82,188.82,0,0,1-61.36,22.59c-50,9.15-97.93-2.1-142.37-33.45l-29.27-306.95c25.68,16.88,81.31,25.62,136.49,25.62,54.69,0,109.82-8.57,135.78-25.15Zm41.79-337.56c-3.86,14.21-55.73,32.77-138.3,32.77-83.13,0-135.19-18.81-138.4-33.06l-.15-1.51c.34-14.38,53-34.33,138.55-34.33s138,19.88,138.53,34.24Z"/><path class="cls-6" d="M1405.1,1181.63a6.3,6.3,0,0,0-4.75-2.16c-.69,0-12.57.19-44.42,10.43a6.09,6.09,0,0,0-1.65-1.17c-89.87-43.27-157.55-10-160.38-8.59l-.05,0a6.86,6.86,0,0,0-1,.63,1.33,1.33,0,0,0-.21.19c-.21.19-.44.38-.63.59s-.17.23-.25.33a5.08,5.08,0,0,0-.42.61,3,3,0,0,0-.19.36,4.32,4.32,0,0,0-.32.69c0,.13-.08.23-.12.34a5.1,5.1,0,0,0-.19.88.78.78,0,0,0,0,.23,7.67,7.67,0,0,0,0,1.18l10.12,145.31a6.3,6.3,0,0,0,2.77,4.8c1,.65,24.37,16.23,58.15,25.15a173.14,173.14,0,0,0,44,6c28.32,0,54.56-7.85,77.38-23.36a6.36,6.36,0,0,0,2.71-4.35l21-153.09A6.27,6.27,0,0,0,1405.1,1181.63Zm-66.09,14c-10.15,3.61-21.78,8.07-35.07,13.48-52.65,21.52-85.44-7.3-97.13-20.7C1225,1181.92,1275.74,1168.83,1339,1195.67Zm34.5,139.52c-67.81,43.94-145.67,1.28-160.6-7.75l-8.6-123.81c17.65,16.35,53.17,38.12,104.39,17.19,47.34-19.35,72.91-25.69,84.29-27.75Z"/><g class="cls-7"><path class="cls-8" d="M1190.14,1088.27c-.34-10.5,2-19,4.7-19s5,8.38,5.29,18.67c.14,5.15.2,19.16.45,31.94s.5,24.32-.88,24.5-4.15-11.1-6.16-23.88A297.91,297.91,0,0,1,1190.14,1088.27Z"/></g></g></g></svg>