<svg xmlns="http://www.w3.org/2000/svg" viewBox="0 0 2000 2000"><defs><style>.cls-1{fill:#777;}.cls-2{fill:#595959;}.cls-3{fill:#474747;}.cls-4{fill:#3d3d3d;}.cls-5{fill:#4c2605;}.cls-6{opacity:0.4;}.cls-7{fill:#fff;}.cls-8{opacity:0.2;}</style></defs><g id="Layer_3" data-name="Layer 3"><g id="Pan"><path class="cls-1" d="M1540.38,683c-.28,5.84-1.87,11.31-3.63,16.63-1.1,2.54-2.08,5.16-3.36,7.6a80.76,80.76,0,0,1-4.05,7.09,107.61,107.61,0,0,1-21.1,24,128.92,128.92,0,0,1-26.35,17.37c-18.83,9.29-40.32,14.31-61.88,11.94a62.25,62.25,0,0,1-8-1.26l-7.14-1.36c-2.2-.4-4.49-.65-6.76-.93-2.28-.1-4.55-.42-6.86-.4a117.29,117.29,0,0,0-27.61,2.73c-18.26,4-35.81,11.8-52,21.9A231.81,231.81,0,0,0,1288.32,805c-3.8,2.94-7.34,6.23-11,9.34-3.55,3.27-7.09,6.55-10.51,10a394,394,0,0,0-38,44.06c-23.28,31.24-43,65.29-60.14,100.53-4.16,8.55-7.62,12.52-7.73,8.82l0-.46c-1.43,5.77-3.15,11.76-5.21,17.91a189.55,189.55,0,0,1-20.3,42,214.15,214.15,0,0,1-34.4,41.21,261.63,261.63,0,0,1-48.47,35.47c-18.24,10.42-38,19.59-58.7,28.57s-42.23,17.89-65.3,26.33A691.21,691.21,0,0,1,692.31,1209c-7.2,0-14.44-.21-21.73-.44-3.65-.11-7.3-.34-11-.51l-5.5-.29-5.71-.5A195.23,195.23,0,0,1,524,1146.59c-2.66-3-5.46-5.94-8-9.07l-3.77-4.75-1.89-2.35-1.75-2.31c-4.66-6.11-9.3-12.26-14-18.43l-20.13-26.55c-1.34-1.33-2.66-2.71-3.9-4.2a49.43,49.43,0,0,1-9-16.42,50.06,50.06,0,0,1-1.91-18.62,65.16,65.16,0,0,1,4.11-17.09c4.12-10.6,10.08-19.58,16.5-27.79,13-16.27,28.09-29.54,43.63-41.56A491.32,491.32,0,0,1,572,925c16.42-9.8,33.05-18.74,49.76-27a978.31,978.31,0,0,1,100.59-42.7c33.42-12.11,66.55-22.31,99.11-30.83s64.53-15.31,95.72-20.28a721.34,721.34,0,0,1,90.92-9c29.32-.8,57.71.42,84.47,6.09,13.33,2.94,26.35,6.95,38.21,13.62a67.79,67.79,0,0,1,16.31,12.47,52.26,52.26,0,0,1,6.34,8.38c.67,1.13,1.26,2.31,1.82,3.48.78-.67,1.56-1.38,2.29-2.1a44.86,44.86,0,0,0,3.59-3.71q1.71-1.89,3.21-3.91a45.26,45.26,0,0,1,6.95-5.87c1.58-1.28,3.36-2.5,5.17-3.85s3.69-2.68,5.54-4a171.19,171.19,0,0,0,21.54-18.43l5-5.11,4.8-5.35c3.15-3.46,6.49-7.45,9.81-11.17,13.35-15,27.29-29.28,41.69-43.16,28.88-27.62,59.57-53.59,93.54-75.44,17-10.86,34.89-20.64,54.12-28a169.46,169.46,0,0,1,30-8.44,111.78,111.78,0,0,1,31.85-1.32,90.68,90.68,0,0,1,15.95,3.34,80.83,80.83,0,0,1,15,6.38c9.36,4.77,18.75,11.42,25.57,20.81l2.48,3.58c.79,1.22,1.38,2.59,2.05,3.89a43.62,43.62,0,0,1,3.26,8.21,27.32,27.32,0,0,1,1,4.32,34.18,34.18,0,0,1,.67,4.37A51,51,0,0,1,1540.38,683Z"/><path class="cls-2" d="M1166,911.75l-6.78-59.88c1.1,9.71,23.65,2,27,.51,16.14-7.2,30.27-19.17,43.28-30.89,13.31-12,25.51-25.11,37.57-38.33a243,243,0,0,1,93.11-63.42c32.79-12.67,70-23.4,105-27,12.2-1.26,45.2-8.57,51.3,7.33a11.88,11.88,0,0,1,.34,6.45c-1,5-4.55,9.74-7.72,13.63l-43.45,36.66h-75.57l-46.17,10.41-46.16,24-97.3,104.09-34.39,56.94-6.79-9Z"/><path class="cls-2" d="M778.71,850.73S826,912.66,663.86,1025.26l-61.93,67.94,9,12,241-43.91L1026.43,978l77.72-47.3,41.9-56.3,7.62-23.64-17.42-32.56-71.08-21.26-106.3,14.26Z"/><path class="cls-3" d="M937.85,1026s88,61.47,154.91,59.65l-71.5,35.07L833.94,1189l-150.76,11.8-77-11.8-52.42-42.91L504,1093.2l82.23,12,155-12,116-33.63Z"/><path class="cls-3" d="M601.93,1093.2l103.8-91.85,172.07-62s169.45-18.49,218.39-3.26L1035,988.88l-157.2,60L705.73,1093.2l-84.83,12Z"/><path class="cls-3" d="M958.29,1022.73S1055.22,1080,1094,1076.3l14.35-10.3s-100.15-34.2-130.51-56.88Z"/><path class="cls-4" d="M733.19,1088.6S828.31,955.31,1026.43,978L982,1009.12l-115.18,42.13-68.46,19.8L757,1088.6Z"/><path class="cls-2" d="M986.21,1003.19s96.93,57.23,135.71,53.57l8.75-20.88s-94.56-23.62-124.92-46.3Z"/><path class="cls-5" d="M1540.31,674.22a34.18,34.18,0,0,0-.67-4.37,27.32,27.32,0,0,0-1-4.32,43.62,43.62,0,0,0-3.26-8.21c-.67-1.3-1.26-2.67-2.05-3.89l-2.48-3.58c-6.82-9.39-16.21-16-25.57-20.81a80.83,80.83,0,0,0-15-6.38,90.68,90.68,0,0,0-15.95-3.34,111.78,111.78,0,0,0-31.85,1.32,169.46,169.46,0,0,0-30,8.44c-19.23,7.35-37.12,17.13-54.12,28-34,21.85-64.66,47.82-93.54,75.44-14.4,13.88-28.34,28.2-41.69,43.16-3.32,3.72-6.66,7.71-9.81,11.17l-4.8,5.35-5,5.11A171.19,171.19,0,0,1,1182,815.73c-1.85,1.3-3.76,2.6-5.54,4s-3.59,2.57-5.17,3.85a45.26,45.26,0,0,0-6.95,5.87q-1.5,2-3.21,3.91a44.86,44.86,0,0,1-3.59,3.71c-.73.72-1.51,1.43-2.29,2.1-.56-1.17-1.15-2.35-1.82-3.48a52.26,52.26,0,0,0-6.34-8.38,67.79,67.79,0,0,0-16.31-12.47c-11.86-6.67-24.88-10.68-38.21-13.62-26.76-5.67-55.15-6.89-84.47-6.09a721.34,721.34,0,0,0-90.92,9c-31.19,5-63.19,11.75-95.72,20.28s-65.69,18.72-99.11,30.83A978.31,978.31,0,0,0,621.8,898c-16.71,8.3-33.34,17.24-49.76,27a491.32,491.32,0,0,0-48.17,32.46c-15.54,12-30.63,25.29-43.63,41.56-6.42,8.21-12.38,17.19-16.5,27.79a65.16,65.16,0,0,0-4.11,17.09,50.06,50.06,0,0,0,1.91,18.62,49.43,49.43,0,0,0,9,16.42c1.24,1.49,2.56,2.87,3.9,4.2l20.13,26.55c4.68,6.17,9.32,12.32,14,18.43l1.75,2.31,1.89,2.35,3.77,4.75c2.56,3.13,5.36,6,8,9.07a195.23,195.23,0,0,0,124.42,60.69l5.71.5,5.5.29c3.66.17,7.31.4,11,.51,7.29.23,14.53.44,21.73.44a691.21,691.21,0,0,0,236.23-40.37c23.07-8.44,44.58-17.38,65.3-26.33s40.46-18.15,58.7-28.57a261.63,261.63,0,0,0,48.47-35.47,214.15,214.15,0,0,0,34.4-41.21,189.55,189.55,0,0,0,20.3-42c2.06-6.15,3.78-12.14,5.21-17.91l0,.46c.11,3.7,3.57-.27,7.73-8.82,17.17-35.24,36.86-69.29,60.14-100.53a394,394,0,0,1,38-44.06c3.42-3.4,7-6.68,10.51-10,3.66-3.11,7.2-6.4,11-9.34a231.81,231.81,0,0,1,23.37-16.71c16.16-10.1,33.71-17.91,52-21.9a117.29,117.29,0,0,1,27.61-2.73c2.31,0,4.58.3,6.86.4,2.27.28,4.56.53,6.76.93l7.14,1.36a62.25,62.25,0,0,0,8,1.26c21.56,2.37,43-2.65,61.88-11.94a128.92,128.92,0,0,0,26.35-17.37,107.61,107.61,0,0,0,21.1-24,80.76,80.76,0,0,0,4.05-7.09c1.28-2.44,2.26-5.06,3.36-7.6,1.76-5.32,3.35-10.79,3.63-16.63A51,51,0,0,0,1540.31,674.22ZM495.51,1073.37a47.64,47.64,0,0,1-5.32-4.25c-2.37-3.1-4.72-6.21-7.09-9.34l0,0a27.24,27.24,0,0,1-1.47-3.54,28.72,28.72,0,0,1-1-10.56,43.18,43.18,0,0,1,2.81-11.4c3-7.7,7.79-15.24,13.33-22.32,11.27-14.17,25.3-26.68,39.95-38a474.63,474.63,0,0,1,46.06-31.22c15.83-9.53,32-18.31,48.26-26.47a986.22,986.22,0,0,1,98.26-42.41c32.73-12.11,65.25-22.44,97.16-31.13s63.27-15.68,93.77-21a721.94,721.94,0,0,1,88.63-10.07c28.4-1.24,55.82-.49,80.78,4.32,12.4,2.48,24.28,5.94,34.34,11.34s18,12.86,20.95,22,.55,19.88-4.74,30-13,19.78-21.79,28.87c-17.81,18.15-39.91,34.36-64,49.5a724.88,724.88,0,0,1-78.64,42.11c-28.08,13-57.85,25.08-89,36.08s-63.79,21-97.63,29.66a979.32,979.32,0,0,1-104.94,21c-18,2.54-36.3,4.49-54.75,5.67-6.63.42-13.31.71-20,.9,3.52-4.62,7.41-9.17,11.4-13.73a319.5,319.5,0,0,1,27.75-27.52,383.52,383.52,0,0,1,32.43-25.63c2.83-2.08,5.84-4,8.77-6,1.5-1,3-2,4.46-3s3-1.91,4.57-2.87q4.57-2.83,9.22-5.74l9.51-5.45a471.14,471.14,0,0,1,58.69-27.73c2.46-1,4.91-1.91,7.33-2.84s4.85-1.89,7.3-2.69q7.34-2.5,14.53-5c4.81-1.55,9.66-2.92,14.38-4.37,2.39-.71,4.74-1.42,7.09-2.14l7.08-1.83a667.53,667.53,0,0,1,101.67-18.36c3.67-.4,7.26-.86,10.76-1.2l10.25-.8c6.63-.48,12.91-1.15,18.79-1.47s11.35-.61,16.41-.9,9.66-.69,13.82-.78c16.64-.69,25.94-1.74,26-3.19s-9.08-3.15-25.82-5c-4.19-.53-8.85-.74-14-1L975.1,923c-6-.23-12.39-.11-19.17-.13l-10.5,0c-3.59.09-7.26.32-11,.49a557.83,557.83,0,0,0-105.27,14.4c-2.44.56-4.92,1.13-7.39,1.72s-4.92,1.34-7.39,2c-5,1.38-10,2.68-15.05,4.21l-15.2,4.92c-2.58.79-5.12,1.72-7.66,2.68s-5.11,1.89-7.69,2.84a449.62,449.62,0,0,0-61.61,28.65c-3.34,1.93-6.68,3.84-10,5.75s-6.49,4-9.7,6c-1.6,1-3.19,2-4.79,3l-4.66,3.19c-3.08,2.15-6.21,4.18-9.21,6.39a384.58,384.58,0,0,0-33.86,27.52,315,315,0,0,0-28.87,29.91c-4.32,5.19-8.48,10.37-12.28,15.75-1,1.32-1.91,2.7-2.83,4s-1.85,2.73-2.71,4.13c-.52.82-1,1.7-1.55,2.54-4.35-.08-8.69-.25-13-.48-18.51-1-37.18-3.34-54.5-8.59C510.58,1081.47,502.31,1078,495.51,1073.37ZM1524.74,681a51.88,51.88,0,0,1-8.25,24.12,91.27,91.27,0,0,1-17.8,20.55,111.69,111.69,0,0,1-49,24.65,87.07,87.07,0,0,1-27.08,1.63l-3.36-.31-3.34-.65-7.28-1.39c-2.67-.59-5.29-.8-8-1.17s-5.31-.46-8-.57c-21.27-.69-42.07,4.22-61.11,12.26a191.22,191.22,0,0,0-27.42,14.21,240,240,0,0,0-25,17.74,327.83,327.83,0,0,0-43.47,42.43,480.54,480.54,0,0,0-36.32,48.21c-11.06,16.76-21.37,34-30.78,51.65-.79,1.47-1.57,3-2.28,4.53.29-4.51.1-8.8.14-12.78,0-4.52-.19-8.57-.33-12.31s-.36-7.11-.51-10.13c-.69-12.1-1.4-18.44-2.12-18.44s-1.42,6.34-2.12,18.44q-.21,4.53-.5,10.13c-.19,3.74-.29,7.86-.65,12.18s-.42,9.05-1.22,14c-.31,2.48-.63,5-1,7.68s-1,5.32-1.44,8.11a196.8,196.8,0,0,1-10.27,35.85,186.37,186.37,0,0,1-20.72,38.94,206.7,206.7,0,0,1-33.59,37.79,253.26,253.26,0,0,1-46.7,32.41c-17.68,9.55-37.2,18.12-57.77,26.6s-42.37,17-64.77,24.83A685.32,685.32,0,0,1,774.56,1185,677.71,677.71,0,0,1,692.5,1189c-7,0-14-.32-21.12-.57-3.53-.12-7.07-.38-10.62-.56l-5.31-.32-5.1-.48a175.49,175.49,0,0,1-111.16-54.75c-2.35-2.73-4.85-5.33-7.12-8.14l-5.1-6.37-1.72-2.3c-2.52-3.32-5.06-6.68-7.58-10,18.39,5,36.78,7.12,54.88,8.08a494.36,494.36,0,0,0,58.08-.67c19.09-1.28,37.85-3.38,56.33-6.06a984.19,984.19,0,0,0,107-22.09c34.38-9,67.44-19.5,99.06-31s61.8-24.14,90.26-37.79a720.34,720.34,0,0,0,79.94-44.27c24.59-16,47.24-33.17,66-53,9.3-10,17.74-20.7,23.7-32.94a67.6,67.6,0,0,0,6.32-19.54,53.3,53.3,0,0,0,.44-10.5,46.84,46.84,0,0,0-2-10.35,1.38,1.38,0,0,1-.06-.16,40.12,40.12,0,0,0,4.38-1.22c20.72-7.26,37.29-20.47,51.94-34.74l5.39-5.48c1.79-1.83,3.43-3.78,5.15-5.67,3.5-3.84,6.59-7.52,9.84-11.17q9.7-11,20-21.54c27.27-28.15,56.42-54.66,87.79-77.88a395.79,395.79,0,0,1,49-31.3c17-9,34.91-16.37,53.24-19.84s37-2.43,52.78,6.24l6,3.27,5.46,3.74,4.91,4.22,2.1,2.33a18.82,18.82,0,0,1,2,2.37c1.09,1.72,2.49,3.3,3.25,5.15l1.36,2.68,1,2.84.5,1.42c.11.49.17,1,.28,1.47l.54,2.94c.09,1,.11,2,.17,3l.08,1.51C1524.86,680,1524.76,680.51,1524.74,681Z"/><g class="cls-6"><path class="cls-7" d="M527.62,1016.26c-8.51,10-14.37,20.11-17.32,28-1.51,3.93-2.37,7.27-3.13,9.64s-1.28,3.76-2,3.79-1.37-1.35-1.9-4a35.45,35.45,0,0,1,.18-11.26,56.56,56.56,0,0,1,5.32-15.82,77,77,0,0,1,4.91-8.47,96.74,96.74,0,0,1,6.26-8.32c1.15-1.36,2.55-3,4.25-4.79.84-.91,1.76-1.85,2.74-2.81l3.1-3.06,1.66-1.63,1.79-1.63,3.79-3.41c1.29-1.2,2.71-2.31,4.13-3.5s2.88-2.4,4.41-3.59c6.1-4.75,12.87-9.66,20-14.32s14.55-9.22,21.87-13.44c14.64-8.49,28.68-16.08,39-21.8s16.89-9.41,17.3-8.81-5.53,5.37-15.25,12.11-23.25,15.33-37.29,24.51c-7,4.58-14.1,9.42-20.89,14.26s-13.15,9.86-18.88,14.63c-1.43,1.2-2.78,2.42-4.12,3.59s-2.66,2.29-3.85,3.46l-3.54,3.36-1.67,1.59-1.53,1.59-2.88,3c-.92.93-1.78,1.83-2.53,2.69C530,1013.49,528.68,1015,527.62,1016.26Z"/></g><g class="cls-6"><path class="cls-7" d="M1398.73,682.08c-7.73,4.3-14.62,8.4-19.82,11.24-1.29.71-2.49,1.33-3.58,1.84a26.5,26.5,0,0,1-2.84,1.27c-1.66.6-2.8.69-3.25.17s-.17-1.61.75-3.16a26.41,26.41,0,0,1,1.83-2.64c.79-.95,1.73-2,2.8-3.1a85.68,85.68,0,0,1,19.24-14.36,152.37,152.37,0,0,1,21.77-9.75,159.17,159.17,0,0,1,15.95-4.73,152.43,152.43,0,0,1,17.16-3.1,91.28,91.28,0,0,1,16.68-.7,54,54,0,0,1,14,2.53,31.44,31.44,0,0,1,8.74,4.4,12.16,12.16,0,0,1,2,1.77c.42.46.6.77.5.91s-.46.12-1.05,0-1.38-.52-2.44-.86a48.29,48.29,0,0,0-8.76-2.4,59.74,59.74,0,0,0-13-.71,99.17,99.17,0,0,0-15.51,2.09c-5.4,1.07-10.85,2.53-16.1,4.11s-10.26,3.5-14.83,5.34A196.77,196.77,0,0,0,1398.73,682.08Z"/></g><ellipse class="cls-8" cx="897.47" cy="1318.45" rx="240.86" ry="62.82"/></g></g></svg>