<svg xmlns="http://www.w3.org/2000/svg" viewBox="0 0 2000 2000"><defs><style>.cls-1{opacity:0.2;}.cls-2{fill:#75c2ec;}.cls-3{fill:#4cabe1;}.cls-4{fill:none;stroke:#09659e;stroke-miterlimit:10;stroke-width:7px;}.cls-5{fill:#09659e;}.cls-6{fill:#d5ebf7;}.cls-7{fill:#99b8c6;}.cls-8{fill:#4c2605;}.cls-9{opacity:0.4;}.cls-10{fill:#fff;}</style></defs><g id="Layer_4" data-name="Layer 4"><g id="Sugar"><path class="cls-1" d="M1305.06,1216.39h55.65c21,0,31.84,25.12,17.42,40.4l-167,176.89a24,24,0,0,1-17.42,7.51H639.29c-21.33,0-32-25.77-17-40.87l88.8-89a23.92,23.92,0,0,1,10.74-6.21l463.69-124.58a23.91,23.91,0,0,1,14.11.52l97.5,34A23.87,23.87,0,0,0,1305.06,1216.39Z"/><path class="cls-2" d="M1345.28,1190.45v20.84l0,1.89c0,1.43-.15,2.84-.32,4.24a43.47,43.47,0,0,1-5.35,16,44.48,44.48,0,0,1-4.94,6.93c-2.09,2.33-3.46,3.57-5,5.14q-36.5,36.49-72.51,72.49-18,18-35.88,35.83l-13.37,13.37a43.4,43.4,0,0,1-21.54,11.7,42,42,0,0,1-8.2.94l-6.45,0q-100.2-.09-196.82-.21L786,1379.36q-23.09,0-45.85-.11c-7.6,0-15.15,0-22.69,0l-11.29,0-5.63,0c-1.95,0-3.51,0-6.17-.13a42.42,42.42,0,0,1-14.11-3.25,42.93,42.93,0,0,1-12.09-7.85A41.92,41.92,0,0,1,655,1343a25.33,25.33,0,0,1-.38-3.55l-.06-1.79-.05-.88v-.69l0-5.52c0-3.7,0-7.37,0-11q0-11,.06-21.92c.65-233,1.59-438.26,2.73-602.71A39.36,39.36,0,0,1,674,662.45l2-1.35,2.1-1.19,3.57-1.91,7.09-3.78,14.34-7.62q28.9-15.33,59.39-31.53T825,581.9l32.52-17.21a40.31,40.31,0,0,1,11-3.72,39.8,39.8,0,0,1,5.77-.65l1.47,0,1.2,0h2.33c6.25,0,12.53-.07,18.83-.09,101-.37,210.57-.75,327.06-1.19q21.85,0,44-.11l22.25-.06h11.29a41.42,41.42,0,0,1,14.24,2.64,42.18,42.18,0,0,1,21.93,18.48,42.64,42.64,0,0,1,5,13.77c.17,1.22.42,2.43.5,3.65l.19,3.67,0,5.71q0,22.77.09,45.85.15,92.26.31,188.89t.21,196.87q0,50.09,0,101Q1345.26,1164.79,1345.28,1190.45Z"/><polygon class="cls-3" points="1173.16 677.2 670.86 677.2 871.39 567.45 1307.55 567.45 1335.59 594.27 1335.59 1219.83 1185.61 1366.16 1173.16 677.2"/><line class="cls-4" x1="1184.59" y1="1017.7" x2="1332.88" y2="852.57"/><line class="cls-4" x1="1184.59" y1="980.33" x2="1332.88" y2="815.2"/><path class="cls-5" d="M1187.34,711.37c1,1,40.84,49.61,61.77,75.17,5.36,6.54,18,5.05,20.42-3l24.22-87.7L1281.33,714l-21.86,45-44.15-47.65-20.11-23.61L1183,695.63Z"/><path class="cls-3" d="M746.39,1238.66,941.29,1192a4.66,4.66,0,0,1,2.64.13l168.5,57.82a4.75,4.75,0,0,1,0,9L912.63,1326.1a58,58,0,0,1-48.92-5.61L745,1247.31A4.74,4.74,0,0,1,746.39,1238.66Z"/><polygon class="cls-6" points="790.55 1168.71 846.93 1147.96 858.77 1144.71 917.34 1181.19 918.3 1244.22 849.49 1287.11 788.69 1252.55 788.69 1177.32 790.55 1168.71"/><polygon class="cls-7" points="853.49 1212.22 917.34 1181.19 918.3 1238.23 849.49 1287.11 853.49 1212.22"/><polygon class="cls-6" points="935.63 1150.95 992.01 1130.2 1003.85 1126.95 1062.41 1163.43 1063.37 1226.46 994.57 1269.35 933.77 1234.79 933.77 1159.56 935.63 1150.95"/><path class="cls-5" d="M670.86,876.38h505.9l6.21,200.94-512.11-3.92v-197Z"/><polygon class="cls-5" points="1182.97 1043.51 1330.83 883.06 1335.59 1219.83 1185.61 1366.16 1182.97 1043.51"/><polygon class="cls-7" points="998.57 1194.45 1062.41 1163.43 1063.37 1220.46 994.57 1269.35 998.57 1194.45"/><line class="cls-4" x1="1188.46" y1="1013.39" x2="1324.98" y2="861.37"/><path class="cls-8" d="M1345.26,1139.35q0-50.91,0-101-.09-100.23-.21-196.87t-.31-188.89q0-23.08-.09-45.85l0-5.71-.19-3.67c-.08-1.22-.33-2.43-.5-3.65a42.64,42.64,0,0,0-5-13.77,42.18,42.18,0,0,0-21.93-18.48,41.42,41.42,0,0,0-14.24-2.64h-11.29l-22.25.06q-22.14.06-44,.11c-116.49.44-226.05.82-327.06,1.19-6.3,0-12.58.07-18.83.09h-2.33l-1.2,0-1.47,0a39.8,39.8,0,0,0-5.77.65,40.31,40.31,0,0,0-11,3.72L825,581.9q-32,17-62.49,33.17T703.12,646.6l-14.34,7.62L681.69,658l-3.57,1.91L676,661.1l-2,1.35a39.36,39.36,0,0,0-16.67,32.43c-1.14,164.45-2.08,369.72-2.73,602.71q0,10.89-.06,21.92c0,3.65,0,7.32,0,11l0,5.52v.69l.05.88.06,1.79A25.33,25.33,0,0,0,655,1343a41.92,41.92,0,0,0,13.16,25,42.93,42.93,0,0,0,12.09,7.85,42.42,42.42,0,0,0,14.11,3.25c2.66.17,4.22.11,6.17.13l5.63,0,11.29,0c7.54,0,15.09,0,22.69,0q22.77.06,45.85.11l188.89.31q96.51.09,196.82.21l6.45,0a42,42,0,0,0,8.2-.94,43.4,43.4,0,0,0,21.54-11.7l13.37-13.37q17.89-17.85,35.88-35.83,36-36,72.51-72.49c1.53-1.57,2.9-2.81,5-5.14a44.48,44.48,0,0,0,4.94-6.93,43.47,43.47,0,0,0,5.35-16c.17-1.4.27-2.81.32-4.24l0-1.89v-20.84Q1345.28,1164.78,1345.26,1139.35ZM670.86,694.88a26.41,26.41,0,0,1,3-11.82,25.93,25.93,0,0,1,8.18-9.21l1.31-.84,1.36-.78,3.51-1.8c2.37-1.22,4.74-2.46,7.13-3.68,4.79-2.48,9.6-5,14.45-7.45l59.74-30.84L832.37,596q16.07-8.32,32.46-16.78a24,24,0,0,1,6.59-2.18,29,29,0,0,1,3.46-.36h4.37q9.38.08,18.83.09L1225.14,578q21.85,0,44,.11l22.25.06c3.67,0,7.37,0,11,0a22,22,0,0,1,7.71,1.49,23,23,0,0,1,8.79,5.94c-10.75,25.41-22.17,57.17-32.68,88.42-5.69,16.92-11.13,33.72-16,49.25q-1.83,5.84-3.59,11.4c-.57,1.87-1.13,3.7-1.7,5.5a5.12,5.12,0,0,1-.21.63l-.15.32-.23.65c-.29.35-.38.82-.71,1.11a7.13,7.13,0,0,1-1.81,1.74,8.47,8.47,0,0,1-2.31.95,7.23,7.23,0,0,1-4.55-.42c-1.53-.67-2-1.22-4.7-4.47-2.29-2.67-4.64-5.44-7.1-8.32-4.91-5.71-10.16-11.82-15.64-18.16-9.66-11.14-20.09-23-30.82-35,29.6-22.88,72.85-58.23,97.51-87.12-36.5,16.94-85.62,52-115.33,74.38-60.35-1.49-119.13-1.87-161.43-1.87-84.79,0-236,1.45-332.62,10.5,96.65,9,247.83,10.49,332.62,10.49,41.4,0,98.58-.35,157.57-1.76-1.2,67.2-1.64,132.57-1.72,184.52H671.91C671.59,806.5,671.23,748.5,670.86,694.88Zm502.3,188.18v182.8H677.11V883.06ZM1325,606.73q0,22.77-.09,45.85-.15,92.26-.31,188.89t-.21,196.87q0,50.09,0,101,0,25.44,0,51.1v21.64l0,.55a15.82,15.82,0,0,1-.16,2.16,22,22,0,0,1-2.76,8.23,22.33,22.33,0,0,1-2.51,3.57c-.76.88-2.54,2.6-4,4.09l-72.49,72.51-35.83,35.85-8.93,8.92-4.45,4.47a22.13,22.13,0,0,1-15.34,6.55l-6.07,0-196.82.19q-96.54.19-188.89.34l-90.54.13c-10.62-.28-20.15-9.12-21.48-19.51a10.34,10.34,0,0,1-.18-1.93l-.07-1,0-.51v-6.21c0-3.7,0-7.37,0-11q0-11-.06-21.92c-.21-75.4-.45-147.89-.72-217h501.78c1.39,89.66,4,184.84,9.13,257.18,9-129.19,10.5-331.24,10.5-444.56,0-52.33-.34-123.56-1.55-197.85,7.93,9.91,15.78,19.57,23.23,28.64,5.36,6.46,10.48,12.65,15.29,18.47l7,8.37a57.49,57.49,0,0,0,4,4.52,32,32,0,0,0,3,2.37,29.25,29.25,0,0,0,3.27,1.81,22.78,22.78,0,0,0,14.65,1.34,23.23,23.23,0,0,0,7.25-3.11,22.53,22.53,0,0,0,5.94-5.75,23.07,23.07,0,0,0,2.14-3.63c.27-.65.52-1.3.75-2l.36-1,.23-.74,1.62-5.52c1.09-3.73,2.2-7.58,3.34-11.48,4.49-15.66,9.25-32.64,13.87-49.88,8.44-31.47,16.4-63.81,21.52-90.71a18.19,18.19,0,0,1,1.76,2.65,22.5,22.5,0,0,1,2.69,7.39c.06.67.23,1.3.25,2l.11,2Z"/><path class="cls-6" d="M740.66,998.62a6.79,6.79,0,0,1-3.89,1.09q-6.25,0-6.89-7.78H699.8q.88,14.66,11.41,22.24t26.71,7.59q10.71,0,18.48-3.7a27.27,27.27,0,0,0,11.86-10.26A27.57,27.57,0,0,0,772.34,993q0-7.91-4.08-13.13a29.7,29.7,0,0,0-9.63-8.16,120.61,120.61,0,0,0-14.08-6.12,77.25,77.25,0,0,1-10.78-4.78q-3.37-2-3.38-5a4.76,4.76,0,0,1,1.15-3.38,3.89,3.89,0,0,1,2.93-1.21,6.18,6.18,0,0,1,4.34,1.66c1.19,1.11,1.83,2.93,1.91,5.48h30.47q-.51-13.89-10.26-21.54t-26.33-7.65a46.43,46.43,0,0,0-17.66,3.19,27.84,27.84,0,0,0-12.36,9.37,24.63,24.63,0,0,0-4.53,15q-.12,8.79,4,14.4a27.78,27.78,0,0,0,9.76,8.54,114.68,114.68,0,0,0,14.34,6,69.79,69.79,0,0,1,10.71,4.53q3.44,2,3.44,5.16A3.8,3.8,0,0,1,740.66,998.62Z"/><path class="cls-6" d="M800.57,1017.17a43.61,43.61,0,0,0,20.34,4.59,46.35,46.35,0,0,0,20.78-4.59,34.3,34.3,0,0,0,14.66-13.71q5.35-9.11,5.35-22V930.61H833.53v50.86q0,6.25-2.93,9.89T821.55,995q-6.12,0-8.86-3.63T810,981.47V930.61H781.77v50.86q0,13,5,22.06A32.71,32.71,0,0,0,800.57,1017.17Z"/><path class="cls-6" d="M892.87,1015.7q10.39,5.81,24.42,5.81,15.8,0,26.13-7.21A54.3,54.3,0,0,0,959.61,997v-28.3h-46v20h22.57a18.9,18.9,0,0,1-15.81,7.9q-10.33,0-15.3-5.22t-5-15.81q0-9.18,4.46-14.47t12.62-5.29a16.94,16.94,0,0,1,7.39,1.47,10.91,10.91,0,0,1,4.72,4.14H959.1q-2-14.65-13.19-23.2T917,929.72q-13.89,0-24.22,5.8a39.5,39.5,0,0,0-15.87,16.25,54,54,0,0,0,0,47.68A39.34,39.34,0,0,0,892.87,1015.7Z"/><path class="cls-6" d="M1029.09,930.6H996.45l-33,90.27h29.7l4.45-13.64h30.08l4.47,13.64H1062Zm-24.6,55.34,8.16-25.11,8.15,25.11Z"/><path class="cls-6" d="M1125.21,986.32a27.63,27.63,0,0,0,14.47-10.08,26.75,26.75,0,0,0,5-16.06,29.28,29.28,0,0,0-3.89-15.09,27,27,0,0,0-11.67-10.6q-7.77-3.88-18.72-3.89h-42.07v90.27h28.29V988.48h.13l17,32.39h31.09ZM1114,967.76c-1.36,1.24-3.4,1.87-6.13,1.87h-11.21V954.32h11.21a8.38,8.38,0,0,1,6.07,2A7.51,7.51,0,0,1,1116,962C1116,964.61,1115.35,966.54,1114,967.76Z"/><path class="cls-8" d="M924.11,1215.14q0-8,0-15.93c0-2.63,0-5.25-.05-7.85,0-1.33.07-2.44-.1-4.37a20.23,20.23,0,0,0-1.13-5,22.76,22.76,0,0,0-1-2.37,11,11,0,0,0-.63-1.11c-.19-.36-.66-1-1-1.49l-.55-.76c-.16-.27-.5-.38-.73-.57l-1.39-.88-1.63-1c-2.17-1.34-4.31-2.68-6.45-4l-12.72-7.89q-12.57-7.81-24.48-15.18l-3-1.84-1.47-.91c-.59-.33-1.19-.73-1.82-1a24.18,24.18,0,0,0-7.94-2.54,25.54,25.54,0,0,0-8.19.14,26.66,26.66,0,0,0-3.9,1c-.63.21-1.28.51-1.85.74l-1.51.67q-12,5.35-23.07,10.33t-21.18,9.53l-5,2.26-1.21.55-.82.38a4.83,4.83,0,0,0-1,.5c-.52.48-1.17,1.09-1.51,1.47a11.12,11.12,0,0,0-1,1.24,18.45,18.45,0,0,0-3.88,11.67c-.23,13.18-.51,28-.78,44.19-.06,4-.13,8.17-.17,12.39,0,2.09-.06,4.24-.08,6.38a24.06,24.06,0,0,0,.19,3.9,19.92,19.92,0,0,0,1,4.1,20,20,0,0,0,8.08,9.78l2.85,1.78c3.84,2.42,7.75,4.85,11.7,7.33q11.9,7.39,24.45,15.24,3.21,2,6.43,4a20.11,20.11,0,0,0,19.35.54c.38-.19.76-.42,1.11-.63l.57-.33.4-.26,1.61-1,3.26-2.08,26.55-17.05,13.61-8.77,6.88-4.43,3.47-2.25a22.11,22.11,0,0,0,2.1-1.47,23,23,0,0,0,2-1.89,20.13,20.13,0,0,0,5.15-9.67,21.5,21.5,0,0,0,.42-2.75c0-.45,0-.91.06-1.37v-5.18Q924.1,1223.17,924.11,1215.14Zm-10.37-23.78c0,2.6,0,5.22,0,7.85,0,5.27-.05,10.58-.05,15.93s0,10.75,0,16.19l0,4.09v1c0,.2,0,.44,0,.67a8.63,8.63,0,0,1-.21,1.32,9.64,9.64,0,0,1-2.5,4.68,7.52,7.52,0,0,1-1,.9,12.1,12.1,0,0,1-1.28.91l-3.45,2.22c-2.31,1.49-4.59,3-6.88,4.45l-13.58,8.82q-13.46,8.75-26.45,17.19l-3.24,2.12-1.59,1-.4.25-.27.17-.55.32a10.25,10.25,0,0,1-9.68-.17c-2.1-1.28-4.17-2.54-6.25-3.78-8.46-5.08-16.69-10.06-24.69-14.86-4-2.42-7.94-4.77-11.82-7.1-1-.59-1.95-1.15-2.9-1.74a12.1,12.1,0,0,1-1.91-1.41,10.32,10.32,0,0,1-2.6-3.8,9.52,9.52,0,0,1-.63-2.2,15.07,15.07,0,0,1-.17-2.56c0-2.14-.06-4.29-.08-6.38-.06-4.22-.11-8.36-.17-12.39-.29-16.19-.54-31-.78-44.19a11.77,11.77,0,0,1,2.73-7.2,6.84,6.84,0,0,1,.7-.73,2.75,2.75,0,0,1,.39-.36l1.85-.76q2.49-1,5-2.08,10.23-4.21,21.48-8.85t23.32-9.74l1.51-.63c.46-.19.82-.34,1.24-.47a18.57,18.57,0,0,1,2.52-.63,16.38,16.38,0,0,1,10.22,1.73c.4.21.76.46,1.18.69l1.44.94,2.94,1.89,24.25,15.54c4.16,2.64,8.38,5.33,12.62,8.06,2.14,1.34,4.28,2.71,6.42,4.09l1.62,1,.23.15h0l0,0,.38.69a12.27,12.27,0,0,1,.5,1.18,11.39,11.39,0,0,1,.55,2.49C913.78,1188.61,913.74,1190.08,913.74,1191.36Z"/><path class="cls-8" d="M868.53,1199.91c-6.24,2.93-12,5.86-17.08,8.64-5.27-3.66-11.49-7.67-18.29-11.72-20.65-12.31-38.59-20.27-40.07-17.78s14,14.49,34.69,26.79c6.5,3.88,12.69,7.3,18.23,10.12-.36,4.8-.64,10-.8,15.45-.68,24,1.12,43.57,4,43.66s5.8-19.33,6.48-43.36c.15-5.21.18-10.16.11-14.79,5.29-2.13,11.09-4.64,17.19-7.52,21.75-10.24,38.37-20.67,37.14-23.29S890.27,1189.67,868.53,1199.91Z"/><path class="cls-8" d="M1070.53,1211.82q0-8.16,0-16.19c0-5.37,0-10.66,0-15.93,0-2.63,0-5.25,0-7.85,0-1.33.07-2.44-.1-4.37a21.54,21.54,0,0,0-1.13-5.06,24.73,24.73,0,0,0-1-2.35c-.21-.38-.4-.76-.63-1.13s-.65-1-1-1.47l-.55-.78a3.23,3.23,0,0,0-.75-.55l-1.37-.88-1.63-1q-3.26-2.05-6.47-4l-12.7-7.92c-8.37-5.18-16.56-10.24-24.5-15.18l-3-1.82-1.47-.93c-.58-.31-1.21-.71-1.82-1a25.79,25.79,0,0,0-8-2.54,25.27,25.27,0,0,0-8.19.17,22.92,22.92,0,0,0-3.9,1c-.61.21-1.28.51-1.83.74l-1.51.67-23.07,10.31q-11.08,5-21.18,9.55l-5,2.24-1.22.57-.82.36a5.93,5.93,0,0,0-1,.5c-.5.48-1.17,1.09-1.49,1.47s-.73.82-1.07,1.24a18.57,18.57,0,0,0-3.88,11.67c-.23,13.18-.49,28-.78,44.19,0,4-.11,8.19-.17,12.41,0,2.1,0,4.22-.06,6.38a21.68,21.68,0,0,0,.19,3.88,18.16,18.16,0,0,0,1.05,4.1,19.6,19.6,0,0,0,4.66,7.13,21.59,21.59,0,0,0,3.4,2.67c1,.59,1.91,1.17,2.87,1.78l11.7,7.31q11.86,7.42,24.45,15.24l6.43,4a20.17,20.17,0,0,0,9.53,2.73,19.86,19.86,0,0,0,9.82-2.21c.38-.19.76-.4,1.11-.61l.55-.33.42-.25,1.62-1,3.25-2.08q13-8.36,26.53-17.05l13.63-8.75c2.29-1.47,4.57-3,6.88-4.45l3.45-2.23a22.74,22.74,0,0,0,2.12-1.49,18,18,0,0,0,2.05-1.87,20.28,20.28,0,0,0,5.15-9.69,18.16,18.16,0,0,0,.4-2.73c.06-.47,0-.93.06-1.39l0-1.07Zm-10.41-32.12c0,5.27,0,10.56,0,15.93s0,10.75,0,16.19v5c0,.24,0,.47,0,.68a8.23,8.23,0,0,1-.19,1.32,10,10,0,0,1-2.5,4.7,9.45,9.45,0,0,1-1,.9,12.69,12.69,0,0,1-1.26.89l-3.47,2.24c-2.28,1.49-4.57,3-6.86,4.45-4.56,3-9.09,5.88-13.58,8.8q-13.49,8.75-26.45,17.21l-3.24,2.1-1.61,1-.38.25-.27.17c-.19.11-.38.23-.57.32a10.06,10.06,0,0,1-9.66-.17L982.7,1258,958,1243.12l-11.84-7.1-2.9-1.72a9.8,9.8,0,0,1-1.88-1.43,10.62,10.62,0,0,1-2.63-3.78,10.8,10.8,0,0,1-.63-2.22,14.58,14.58,0,0,1-.17-2.54c0-2.16,0-4.28-.06-6.38-.06-4.22-.13-8.36-.17-12.41-.29-16.19-.54-31-.77-44.19a11.59,11.59,0,0,1,2.73-7.18,6.67,6.67,0,0,1,.67-.73,2.62,2.62,0,0,1,.42-.38c.61-.25,1.21-.48,1.82-.74,1.66-.69,3.36-1.38,5.06-2.07q10.23-4.26,21.46-8.88l23.34-9.74L994,1131l1.24-.47a16.51,16.51,0,0,1,2.52-.6,16.25,16.25,0,0,1,10.22,1.72c.4.21.74.44,1.16.69l1.47.92,2.91,1.89q11.82,7.56,24.27,15.56,6.24,4,12.62,8c2.12,1.36,4.26,2.73,6.42,4.09l1.62,1,.23.15,0,0v0l.38.69a8.7,8.7,0,0,1,.5,1.18,9.54,9.54,0,0,1,.55,2.5c.06.65,0,2.14,0,3.42C1060.14,1174.45,1060.14,1177.07,1060.12,1179.7Z"/><path class="cls-8" d="M1014.94,1180.39c-6.23,2.94-12,5.87-17.07,8.64-5.27-3.65-11.5-7.67-18.3-11.72-20.64-12.31-38.59-20.26-40.07-17.78s14,14.49,34.7,26.8c6.5,3.87,12.69,7.29,18.22,10.11-.36,4.8-.64,10-.79,15.46-.69,24,1.11,43.57,4,43.65s5.8-19.33,6.49-43.35c.15-5.22.17-10.17.1-14.8,5.29-2.13,11.1-4.64,17.2-7.51,21.74-10.25,38.37-20.68,37.13-23.3S1036.69,1170.15,1014.94,1180.39Z"/><g class="cls-9"><path class="cls-10" d="M706.47,804.8c1.75,17.28,1.73,31.55-1,32s-7.14-13.39-8.93-31c-.42-4.39-1.1-12.57-1.49-22.38s-.58-21.25-.33-32.12c.43-21.75,2.64-41.16,4-41.09s1.71,19.48,3.09,40.95c.66,10.74,1.54,22,2.45,31.64S706.06,800.47,706.47,804.8Z"/></g></g></g></svg>